RecursiveTrio-TextSemiLightv0.0.4.ufo
<glyph name="B" format="2">
  <advance width="600.0"/>
  <unicode hex="0042"/>
  <outline>
    <contour>
      <point x="45.0" y="700.0" type="curve"/>
      <point x="45.0" y="687.0" type="line" smooth="yes"/>
      <point x="45.0" y="663.8"/>
      <point x="48.4" y="645.6"/>
      <point x="58.4" y="635.6" type="curve" smooth="yes"/>
      <point x="62.8" y="631.2"/>
      <point x="68.2" y="630.0"/>
      <point x="73.0" y="630.0" type="curve" smooth="yes"/>
      <point x="80.6" y="630.0"/>
      <point x="90.0" y="631.2"/>
      <point x="105.0" y="634.2" type="curve" smooth="yes"/>
      <point x="155.28920574598095" y="643.3546444775619"/>
      <point x="229.63312883435583" y="650.0"/>
      <point x="297.0" y="650.0" type="curve" smooth="yes"/>
      <point x="379.4" y="650.0"/>
      <point x="424.1963324084419" y="638.9091895692352"/>
      <point x="472.8" y="595.8" type="curve"/>
      <point x="489.2" y="612.2"/>
      <point x="489.8" y="642.8"/>
      <point x="470.6" y="662.0" type="curve" smooth="yes"/>
      <point x="425.7130245769572" y="706.8869754230428"/>
      <point x="372.6" y="720.0"/>
      <point x="292.4" y="720.0" type="curve" smooth="yes"/>
      <point x="213.06046511627906" y="720.0"/>
      <point x="140.29914112415653" y="715.2711261579103"/>
    </contour>
    <contour>
      <point x="167.0" y="10.8" type="line"/>
      <point x="167.0" y="179.2"/>
      <point x="167.0" y="488.2"/>
      <point x="167.0" y="656.6" type="curve" smooth="yes"/>
      <point x="167.0" y="662.2"/>
      <point x="165.0" y="666.0"/>
      <point x="161.4" y="669.6" type="curve" smooth="yes"/>
      <point x="152.2" y="678.8"/>
      <point x="130.4" y="684.0"/>
      <point x="108.0" y="684.0" type="curve" smooth="yes"/>
      <point x="95.0" y="684.0" type="line"/>
      <point x="95.0" y="568.6"/>
      <point x="95.0" y="319.4"/>
      <point x="95.0" y="204.0" type="curve" smooth="yes"/>
      <point x="95.0" y="149.2"/>
      <point x="95.0" y="95.0"/>
      <point x="95.0" y="40.2" type="curve" smooth="yes"/>
      <point x="95.0" y="26.4"/>
      <point x="126.6" y="10.8"/>
      <point x="154.0" y="10.8" type="curve" smooth="yes"/>
    </contour>
    <contour>
      <point x="528.0" y="491.6" type="curve" smooth="yes"/>
      <point x="528.0" y="534.0" type="line" smooth="yes"/>
      <point x="528.0" y="577.8"/>
      <point x="507.6" y="625.6"/>
      <point x="470.6" y="662.0" type="curve" smooth="yes"/>
      <point x="452.2" y="679.8"/>
      <point x="413.6" y="678.8"/>
      <point x="397.8" y="664.4" type="curve"/>
      <point x="438.6" y="633.8"/>
      <point x="458.0" y="594.8"/>
      <point x="458.0" y="523.0" type="curve" smooth="yes"/>
      <point x="458.0" y="497.6" type="line" smooth="yes"/>
      <point x="458.0" y="380.6"/>
      <point x="353.0" y="338.0"/>
      <point x="213.2" y="338.0" type="curve" smooth="yes"/>
      <point x="183.0" y="338.0"/>
      <point x="168.2" y="341.2"/>
      <point x="149.0" y="351.2" type="curve"/>
      <point x="143.4" y="347.2"/>
      <point x="140.8" y="339.6"/>
      <point x="140.8" y="331.2" type="curve" smooth="yes"/>
      <point x="140.8" y="302.8"/>
      <point x="178.4" y="275.0"/>
      <point x="208.4" y="275.0" type="curve" smooth="yes"/>
      <point x="380.2" y="275.0"/>
      <point x="528.0" y="342.2"/>
    </contour>
    <contour>
      <point x="523.2" y="176.6" type="curve" smooth="yes"/>
      <point x="523.2" y="215.0" type="line" smooth="yes"/>
      <point x="523.2" y="262.4"/>
      <point x="495.0" y="312.8"/>
      <point x="436.8" y="348.6" type="curve" smooth="yes"/>
      <point x="413.0" y="364.6"/>
      <point x="381.4" y="355.8"/>
      <point x="363.0" y="337.6" type="curve"/>
      <point x="421.0" y="304.2"/>
      <point x="453.2" y="281.0"/>
      <point x="453.2" y="212.0" type="curve" smooth="yes"/>
      <point x="453.2" y="186.6" type="line" smooth="yes"/>
      <point x="453.2" y="102.0"/>
      <point x="363.8" y="59.0"/>
      <point x="269.8" y="59.0" type="curve" smooth="yes"/>
      <point x="164.8" y="59.0"/>
      <point x="139.4" y="68.8"/>
      <point x="111.2" y="87.4" type="curve"/>
      <point x="100.2" y="68.4"/>
      <point x="95.0" y="50.8"/>
      <point x="95.0" y="40.2" type="curve" smooth="yes"/>
      <point x="95.0" y="14.8"/>
      <point x="147.0" y="-10.0"/>
      <point x="270.8" y="-10.0" type="curve" smooth="yes"/>
      <point x="403.6" y="-10.0"/>
      <point x="523.2" y="58.0"/>
    </contour>
  </outline>
</glyph>
<glyph name="C" format="2">
  <advance width="600.0"/>
  <unicode hex="0043"/>
  <outline>
    <contour>
      <point x="525.0" y="421.2" type="line"/>
      <point x="525.0" y="584.4" type="line" smooth="yes"/>
      <point x="525.0" y="617.2"/>
      <point x="511.6" y="650.6"/>
      <point x="485.8" y="676.4" type="curve" smooth="yes"/>
      <point x="464.4" y="697.8"/>
      <point x="437.4" y="690.8"/>
      <point x="431.2" y="667.0" type="curve"/>
      <point x="444.6" y="645.8"/>
      <point x="455.0" y="620.6"/>
      <point x="455.0" y="595.8" type="curve" smooth="yes"/>
      <point x="455.0" y="450.6" type="line" smooth="yes"/>
      <point x="455.0" y="445.2"/>
      <point x="456.8" y="441.4"/>
      <point x="460.6" y="437.6" type="curve" smooth="yes"/>
      <point x="472.0" y="426.2"/>
      <point x="489.0" y="421.2"/>
      <point x="512.0" y="421.2" type="curve" smooth="yes"/>
    </contour>
    <contour>
      <point x="395.0" y="720.0" type="curve" smooth="yes"/>
      <point x="227.0" y="720.0"/>
      <point x="74.0" y="505.0"/>
      <point x="74.0" y="259.6" type="curve" smooth="yes"/>
      <point x="74.0" y="228.8" type="line" smooth="yes"/>
      <point x="74.0" y="182.55826086956523"/>
      <point x="116.4" y="119.6"/>
      <point x="162.4" y="106.0" type="curve"/>
      <point x="147.51314050199642" y="153.63395719942338"/>
      <point x="144.8" y="198.6"/>
      <point x="144.8" y="228.4" type="curve"/>
      <point x="144.8" y="246.8" type="line"/>
      <point x="144.8" y="463.6"/>
      <point x="276.6" y="650.2"/>
      <point x="395.4" y="650.2" type="curve" smooth="yes"/>
      <point x="426.6" y="650.2"/>
      <point x="451.8" y="637.2"/>
      <point x="476.6" y="618.4" type="curve"/>
      <point x="496.8" y="632.8"/>
      <point x="505.2" y="657.0"/>
      <point x="485.8" y="676.4" type="curve"/>
      <point x="460.6" y="701.6"/>
      <point x="431.0" y="720.0"/>
    </contour>
    <contour>
      <point x="322.8" y="-20.0" type="curve" smooth="yes"/>
      <point x="456.00358744394623" y="-20.0"/>
      <point x="549.2" y="41.8"/>
      <point x="549.2" y="93.2" type="curve" smooth="yes"/>
      <point x="549.2" y="119.4"/>
      <point x="549.2" y="138.0"/>
      <point x="549.2" y="149.6" type="curve"/>
      <point x="535.4" y="149.6" type="line"/>
      <point x="485.63432279666614" y="81.9354089036798"/>
      <point x="421.4867924528302" y="50.0"/>
      <point x="322.8" y="50.0" type="curve" smooth="yes"/>
      <point x="186.90588235294118" y="50.0"/>
      <point x="131.4" y="153.66601941747572"/>
      <point x="131.4" y="273.2" type="curve"/>
      <point x="98.8" y="273.4"/>
      <point x="74.0" y="266.4"/>
      <point x="74.0" y="250.0" type="curve" smooth="yes"/>
      <point x="74.0" y="228.8" type="line" smooth="yes"/>
      <point x="74.0" y="91.36635514018693"/>
      <point x="171.78407079646018" y="-20.0"/>
    </contour>
  </outline>
</glyph>
<glyph name="D" format="2">
  <advance width="600.0"/>
  <unicode hex="0044"/>
  <outline>
    <contour>
      <point x="45.0" y="700.0" type="curve"/>
      <point x="45.0" y="687.0" type="line" smooth="yes"/>
      <point x="45.0" y="663.8"/>
      <point x="48.4" y="645.6"/>
      <point x="58.4" y="635.6" type="curve" smooth="yes"/>
      <point x="62.8" y="631.2"/>
      <point x="68.2" y="630.0"/>
      <point x="73.0" y="630.0" type="curve" smooth="yes"/>
      <point x="80.6" y="630.0"/>
      <point x="90.0" y="631.2"/>
      <point x="105.0" y="634.2" type="curve" smooth="yes"/>
      <point x="150.29277551883604" y="642.2924312753917"/>
      <point x="216.7034369885434" y="650.0"/>
      <point x="277.0" y="650.0" type="curve" smooth="yes"/>
      <point x="365.48524590163936" y="650.0"/>
      <point x="408.79819194575856" y="630.2084144524334"/>
      <point x="465.6" y="579.0" type="curve"/>
      <point x="477.02693885403164" y="590.4269388540317"/>
      <point x="479.2051702774177" y="633.3948297225822"/>
      <point x="458.6" y="654.0" type="curve" smooth="yes"/>
      <point x="409.61036667426424" y="702.9896333257358"/>
      <point x="356.59526627218935" y="720.0"/>
      <point x="272.4" y="720.0" type="curve" smooth="yes"/>
      <point x="199.20625752105894" y="720.0"/>
      <point x="132.85918993948545" y="714.3657342457633"/>
    </contour>
    <contour>
      <point x="167.0" y="15.2" type="curve"/>
      <point x="167.0" y="181.4"/>
      <point x="167.0" y="490.0147710487445"/>
      <point x="167.0" y="656.6" type="curve" smooth="yes"/>
      <point x="167.0" y="662.2"/>
      <point x="165.0" y="666.0"/>
      <point x="161.4" y="669.6" type="curve" smooth="yes"/>
      <point x="152.2" y="678.8"/>
      <point x="130.4" y="684.0"/>
      <point x="108.0" y="684.0" type="curve" smooth="yes"/>
      <point x="95.0" y="684.0" type="line"/>
      <point x="95.0" y="567.0"/>
      <point x="95.0" y="313.0"/>
      <point x="95.0" y="196.0" type="curve" smooth="yes"/>
      <point x="95.0" y="147.7750745378652"/>
      <point x="95.0" y="98.73333333333332"/>
      <point x="95.0" y="50.2" type="curve" smooth="yes"/>
      <point x="95.0" y="31.6"/>
      <point x="125.8" y="15.2"/>
    </contour>
    <contour>
      <point x="528.0" y="314.6" type="curve" smooth="yes"/>
      <point x="528.0" y="418.0" type="line" smooth="yes"/>
      <point x="528.0" y="498.87118644067795"/>
      <point x="515.8719908612804" y="596.7280091387195"/>
      <point x="458.6" y="654.0" type="curve" smooth="yes"/>
      <point x="439.7552345053933" y="672.8447654946067"/>
      <point x="400.1421506493006" y="676.5421506493005"/>
      <point x="379.4" y="657.2" type="curve"/>
      <point x="440.8103136060535" y="610.6964364942762"/>
      <point x="458.0" y="534.3787234042553"/>
      <point x="458.0" y="407.0" type="curve" smooth="yes"/>
      <point x="458.0" y="320.6" type="line" smooth="yes"/>
      <point x="458.0" y="168.0"/>
      <point x="372.26382978723404" y="61.0"/>
      <point x="230.0" y="61.0" type="curve" smooth="yes"/>
      <point x="182.09113924050632" y="61.0"/>
      <point x="147.58969072164948" y="69.8"/>
      <point x="108.2" y="89.0" type="curve"/>
      <point x="98.98471938991287" y="80.12516900860842"/>
      <point x="95.0" y="66.66269592476489"/>
      <point x="95.0" y="50.2" type="curve" smooth="yes"/>
      <point x="95.0" y="18.432000000000002"/>
      <point x="154.4" y="-10.0"/>
      <point x="244.0" y="-10.0" type="curve" smooth="yes"/>
      <point x="403.0" y="-10.0"/>
      <point x="528.0" y="122.4"/>
    </contour>
  </outline>
</glyph>
<glyph name="E" format="2">
  <advance width="600.0"/>
  <unicode hex="0045"/>
  <outline>
    <contour>
      <point x="45.0" y="700.0" type="curve"/>
      <point x="45.0" y="687.0" type="line" smooth="yes"/>
      <point x="45.0" y="664.6"/>
      <point x="48.6" y="645.4"/>
      <point x="58.4" y="635.6" type="curve" smooth="yes"/>
      <point x="62.0" y="632.0"/>
      <point x="65.8" y="630.0"/>
      <point x="71.4" y="630.0" type="curve"/>
      <point x="138.15348837209302" y="630.0"/>
      <point x="190.24651162790695" y="630.0"/>
      <point x="257.0" y="630.0" type="curve" smooth="yes"/>
      <point x="357.8" y="630.0"/>
      <point x="433.2" y="630.0"/>
      <point x="534.0" y="630.0" type="curve"/>
      <point x="534.0" y="643.0" type="line" smooth="yes"/>
      <point x="534.0" y="660.8"/>
      <point x="526.8" y="681.2"/>
      <point x="513.6" y="694.4" type="curve" smooth="yes"/>
      <point x="510.0" y="698.0"/>
      <point x="506.2" y="700.0"/>
      <point x="500.6" y="700.0" type="curve" smooth="yes"/>
      <point x="333.9391304347826" y="700.0"/>
      <point x="211.6608695652174" y="700.0"/>
    </contour>
    <contour>
      <point x="167.0" y="30.6" type="line"/>
      <point x="167.0" y="194.0"/>
      <point x="167.0" y="485.2"/>
      <point x="167.0" y="648.6" type="curve" smooth="yes"/>
      <point x="167.0" y="654.2"/>
      <point x="165.0" y="658.0"/>
      <point x="161.4" y="661.6" type="curve" smooth="yes"/>
      <point x="152.2" y="670.8"/>
      <point x="130.4" y="676.0"/>
      <point x="108.0" y="676.0" type="curve" smooth="yes"/>
      <point x="95.0" y="676.0" type="line"/>
      <point x="95.0" y="575.6"/>
      <point x="95.0" y="326.4"/>
      <point x="95.0" y="226.0" type="curve" smooth="yes"/>
      <point x="95.0" y="164.8"/>
      <point x="95.0" y="121.2"/>
      <point x="95.0" y="60.0" type="curve" smooth="yes"/>
      <point x="95.0" y="54.400000000000006"/>
      <point x="97.0" y="50.6"/>
      <point x="100.6" y="47.0" type="curve" smooth="yes"/>
      <point x="112.2" y="35.4"/>
      <point x="131.6" y="30.6"/>
      <point x="154.0" y="30.6" type="curve" smooth="yes"/>
    </contour>
    <contour>
      <point x="125.0" y="360.0" type="curve"/>
      <point x="125.0" y="347.0" type="line" smooth="yes"/>
      <point x="125.0" y="324.6"/>
      <point x="129.8" y="311.2"/>
      <point x="141.4" y="299.6" type="curve" smooth="yes"/>
      <point x="145.0" y="296.0"/>
      <point x="148.8" y="294.0"/>
      <point x="154.4" y="294.0" type="curve"/>
      <point x="200.0" y="294.0"/>
      <point x="215.4" y="294.0"/>
      <point x="261.0" y="294.0" type="curve" smooth="yes"/>
      <point x="336.2" y="294.0"/>
      <point x="384.8" y="294.0"/>
      <point x="460.0" y="294.0" type="curve"/>
      <point x="460.0" y="307.0" type="line" smooth="yes"/>
      <point x="460.0" y="324.8"/>
      <point x="454.8" y="341.2"/>
      <point x="441.6" y="354.4" type="curve" smooth="yes"/>
      <point x="438.0" y="358.0"/>
      <point x="434.2" y="360.0"/>
      <point x="428.6" y="360.0" type="curve" smooth="yes"/>
      <point x="309.0" y="360.0"/>
      <point x="244.6" y="360.0"/>
    </contour>
    <contour>
      <point x="95.0" y="70.0" type="curve"/>
      <point x="95.0" y="57.0" type="line" smooth="yes"/>
      <point x="95.0" y="34.6"/>
      <point x="99.8" y="17.2"/>
      <point x="111.4" y="5.6" type="curve" smooth="yes"/>
      <point x="115.0" y="2.0"/>
      <point x="118.8" y="0.0"/>
      <point x="124.4" y="0.0" type="curve"/>
      <point x="175.6" y="0.0"/>
      <point x="195.8" y="0.0"/>
      <point x="247.0" y="0.0" type="curve" smooth="yes"/>
      <point x="347.4051948051948" y="0.0"/>
      <point x="433.5948051948052" y="0.0"/>
      <point x="534.0" y="0.0" type="curve"/>
      <point x="534.0" y="13.0" type="line" smooth="yes"/>
      <point x="534.0" y="30.8"/>
      <point x="526.8" y="51.2"/>
      <point x="513.6" y="64.4" type="curve" smooth="yes"/>
      <point x="510.0" y="68.0"/>
      <point x="506.2" y="70.0"/>
      <point x="500.6" y="70.0" type="curve" smooth="yes"/>
      <point x="350.37560975609756" y="70.0"/>
      <point x="245.22439024390243" y="70.0"/>
    </contour>
  </outline>
</glyph>
<glyph name="F" format="2">
  <advance width="600.0"/>
  <unicode hex="0046"/>
  <outline>
    <contour>
      <point x="167.0" y="-10.0" type="line"/>
      <point x="167.0" y="158.395"/>
      <point x="167.0" y="480.20500000000004"/>
      <point x="167.0" y="648.6" type="curve" smooth="yes"/>
      <point x="167.0" y="654.2"/>
      <point x="165.0" y="658.0"/>
      <point x="161.4" y="661.6" type="curve" smooth="yes"/>
      <point x="152.2" y="670.8"/>
      <point x="130.4" y="676.0"/>
      <point x="108.0" y="676.0" type="curve" smooth="yes"/>
      <point x="95.0" y="676.0" type="line"/>
      <point x="95.0" y="575.6"/>
      <point x="95.0" y="326.4"/>
      <point x="95.0" y="226.0" type="curve" smooth="yes"/>
      <point x="95.0" y="157.64965517241382"/>
      <point x="95.0" y="87.7503448275862"/>
      <point x="95.0" y="19.4" type="curve" smooth="yes"/>
      <point x="95.0" y="13.8"/>
      <point x="97.0" y="10.0"/>
      <point x="100.6" y="6.4" type="curve" smooth="yes"/>
      <point x="112.2" y="-5.2"/>
      <point x="131.6" y="-10.0"/>
      <point x="154.0" y="-10.0" type="curve" smooth="yes"/>
    </contour>
    <contour>
      <point x="45.0" y="700.0" type="curve"/>
      <point x="45.0" y="687.0" type="line" smooth="yes"/>
      <point x="45.0" y="664.6"/>
      <point x="48.6" y="645.4"/>
      <point x="58.4" y="635.6" type="curve" smooth="yes"/>
      <point x="62.0" y="632.0"/>
      <point x="65.8" y="630.0"/>
      <point x="71.4" y="630.0" type="curve"/>
      <point x="138.15348837209302" y="630.0"/>
      <point x="190.24651162790695" y="630.0"/>
      <point x="257.0" y="630.0" type="curve" smooth="yes"/>
      <point x="357.8" y="630.0"/>
      <point x="433.2" y="630.0"/>
      <point x="534.0" y="630.0" type="curve"/>
      <point x="534.0" y="643.0" type="line" smooth="yes"/>
      <point x="534.0" y="660.8"/>
      <point x="526.8" y="681.2"/>
      <point x="513.6" y="694.4" type="curve" smooth="yes"/>
      <point x="510.0" y="698.0"/>
      <point x="506.2" y="700.0"/>
      <point x="500.6" y="700.0" type="curve" smooth="yes"/>
      <point x="333.9391304347826" y="700.0"/>
      <point x="211.6608695652174" y="700.0"/>
    </contour>
    <contour>
      <point x="119.0" y="310.0" type="curve"/>
      <point x="119.0" y="297.0" type="line" smooth="yes"/>
      <point x="119.0" y="274.6"/>
      <point x="123.8" y="257.2"/>
      <point x="135.4" y="245.6" type="curve" smooth="yes"/>
      <point x="139.0" y="242.0"/>
      <point x="142.8" y="240.0"/>
      <point x="148.4" y="240.0" type="curve"/>
      <point x="194.0" y="240.0"/>
      <point x="209.4" y="240.0"/>
      <point x="255.0" y="240.0" type="curve" smooth="yes"/>
      <point x="343.172972972973" y="240.0"/>
      <point x="403.827027027027" y="240.0"/>
      <point x="492.0" y="240.0" type="curve"/>
      <point x="492.0" y="253.0" type="line" smooth="yes"/>
      <point x="492.0" y="270.8"/>
      <point x="484.8" y="291.2"/>
      <point x="471.6" y="304.4" type="curve" smooth="yes"/>
      <point x="468.0" y="308.0"/>
      <point x="464.2" y="310.0"/>
      <point x="458.6" y="310.0" type="curve" smooth="yes"/>
      <point x="326.4918566775244" y="310.0"/>
      <point x="251.10814332247557" y="310.0"/>
    </contour>
  </outline>
</glyph>
<glyph name="G" format="2">
  <advance width="600.0"/>
  <unicode hex="0047"/>
  <outline>
    <contour>
      <point x="525.0" y="471.6" type="line"/>
      <point x="525.0" y="584.4" type="line" smooth="yes"/>
      <point x="525.0" y="617.2"/>
      <point x="511.6" y="650.6"/>
      <point x="485.8" y="676.4" type="curve" smooth="yes"/>
      <point x="464.4" y="697.8"/>
      <point x="437.4" y="690.8"/>
      <point x="431.2" y="667.0" type="curve"/>
      <point x="444.6" y="645.8"/>
      <point x="455.0" y="620.6"/>
      <point x="455.0" y="595.8" type="curve" smooth="yes"/>
      <point x="455.0" y="501.0" type="line" smooth="yes"/>
      <point x="455.0" y="495.6"/>
      <point x="456.8" y="491.8"/>
      <point x="460.6" y="488.0" type="curve" smooth="yes"/>
      <point x="472.0" y="476.6"/>
      <point x="489.0" y="471.6"/>
      <point x="512.0" y="471.6" type="curve" smooth="yes"/>
    </contour>
    <contour>
      <point x="383.8" y="720.0" type="curve" smooth="yes"/>
      <point x="226.8" y="720.0"/>
      <point x="74.0" y="604.6"/>
      <point x="74.0" y="355.6" type="curve" smooth="yes"/>
      <point x="74.0" y="228.8" type="line" smooth="yes"/>
      <point x="74.0" y="182.6"/>
      <point x="116.4" y="119.6"/>
      <point x="162.4" y="106.0" type="curve"/>
      <point x="147.4" y="154.0"/>
      <point x="144.8" y="198.6"/>
      <point x="144.8" y="228.4" type="curve" smooth="yes"/>
      <point x="144.8" y="353.2" type="line" smooth="yes"/>
      <point x="144.8" y="560.2"/>
      <point x="271.0" y="652.2"/>
      <point x="384.2" y="652.2" type="curve" smooth="yes"/>
      <point x="426.6" y="652.2"/>
      <point x="451.8" y="639.2"/>
      <point x="476.6" y="620.4" type="curve"/>
      <point x="496.8" y="634.8"/>
      <point x="505.2" y="657.0"/>
      <point x="485.8" y="676.4" type="curve"/>
      <point x="460.6" y="701.6"/>
      <point x="431.0" y="720.0"/>
    </contour>
    <contour>
      <point x="322.8" y="-20.0" type="curve" smooth="yes"/>
      <point x="440.8" y="-20.0"/>
      <point x="525.4" y="54.2"/>
      <point x="525.4" y="173.6" type="curve" smooth="yes"/>
      <point x="525.4" y="212.6"/>
      <point x="511.4" y="237.4"/>
      <point x="491.2" y="257.6" type="curve" smooth="yes"/>
      <point x="484.6" y="264.2"/>
      <point x="472.4" y="268.4"/>
      <point x="461.2" y="268.4" type="curve"/>
      <point x="466.8" y="244.8"/>
      <point x="469.4" y="223.0"/>
      <point x="469.4" y="202.6" type="curve" smooth="yes"/>
      <point x="469.4" y="91.0"/>
      <point x="397.2" y="50.0"/>
      <point x="322.8" y="50.0" type="curve" smooth="yes"/>
      <point x="187.0" y="50.0"/>
      <point x="134.6" y="154.8"/>
      <point x="134.6" y="286.0" type="curve"/>
      <point x="102.0" y="286.2"/>
      <point x="74.0" y="282.4"/>
      <point x="74.0" y="266.0" type="curve" smooth="yes"/>
      <point x="74.0" y="228.8" type="line" smooth="yes"/>
      <point x="74.0" y="91.0"/>
      <point x="171.6" y="-20.0"/>
    </contour>
    <contour>
      <point x="297.0" y="311.0" type="curve"/>
      <point x="297.0" y="298.0" type="line" smooth="yes"/>
      <point x="297.0" y="275.6"/>
      <point x="301.8" y="262.2"/>
      <point x="313.4" y="250.6" type="curve" smooth="yes"/>
      <point x="317.0" y="247.0"/>
      <point x="320.8" y="245.0"/>
      <point x="326.4" y="245.0" type="curve"/>
      <point x="372.0" y="245.0"/>
      <point x="347.4" y="245.0"/>
      <point x="393.0" y="245.0" type="curve" smooth="yes"/>
      <point x="462.2392156862745" y="245.0"/>
      <point x="502.7607843137255" y="245.0"/>
      <point x="572.0" y="245.0" type="curve"/>
      <point x="572.0" y="258.0" type="line" smooth="yes"/>
      <point x="572.0" y="275.8"/>
      <point x="566.8" y="292.2"/>
      <point x="553.6" y="305.4" type="curve" smooth="yes"/>
      <point x="550.0" y="309.0"/>
      <point x="546.2" y="311.0"/>
      <point x="540.6" y="311.0" type="curve" smooth="yes"/>
      <point x="429.13793103448273" y="311.0"/>
      <point x="408.46206896551723" y="311.0"/>
    </contour>
  </outline>
</glyph>
<glyph name="H" format="2">
  <advance width="600.0"/>
  <unicode hex="0048"/>
  <outline>
    <contour>
      <point x="167.0" y="-10.0" type="line"/>
      <point x="167.0" y="163.8"/>
      <point x="167.0" y="508.8"/>
      <point x="167.0" y="682.6" type="curve" smooth="yes"/>
      <point x="167.0" y="688.2"/>
      <point x="165.0" y="692.0"/>
      <point x="161.4" y="695.6" type="curve" smooth="yes"/>
      <point x="152.2" y="704.8"/>
      <point x="130.4" y="710.0"/>
      <point x="108.0" y="710.0" type="curve" smooth="yes"/>
      <point x="95.0" y="710.0" type="line"/>
      <point x="95.0" y="604.8"/>
      <point x="95.0" y="331.2"/>
      <point x="95.0" y="226.0" type="curve" smooth="yes"/>
      <point x="95.0" y="157.6"/>
      <point x="95.0" y="87.8"/>
      <point x="95.0" y="19.4" type="curve" smooth="yes"/>
      <point x="95.0" y="13.8"/>
      <point x="97.0" y="10.0"/>
      <point x="100.6" y="6.4" type="curve" smooth="yes"/>
      <point x="112.2" y="-5.2"/>
      <point x="131.6" y="-10.0"/>
      <point x="154.0" y="-10.0" type="curve" smooth="yes"/>
    </contour>
    <contour>
      <point x="507.0" y="-10.0" type="line"/>
      <point x="507.0" y="163.86766917293232"/>
      <point x="507.0" y="508.73233082706764"/>
      <point x="507.0" y="682.6" type="curve" smooth="yes"/>
      <point x="507.0" y="688.2"/>
      <point x="505.0" y="692.0"/>
      <point x="501.4" y="695.6" type="curve" smooth="yes"/>
      <point x="492.2" y="704.8"/>
      <point x="470.4" y="710.0"/>
      <point x="448.0" y="710.0" type="curve" smooth="yes"/>
      <point x="435.0" y="710.0" type="line"/>
      <point x="435.0" y="604.7354838709678"/>
      <point x="435.0" y="331.26451612903224"/>
      <point x="435.0" y="226.0" type="curve" smooth="yes"/>
      <point x="435.0" y="157.6"/>
      <point x="435.0" y="87.8"/>
      <point x="435.0" y="19.4" type="curve" smooth="yes"/>
      <point x="435.0" y="13.8"/>
      <point x="437.0" y="10.0"/>
      <point x="440.6" y="6.4" type="curve" smooth="yes"/>
      <point x="452.2" y="-5.2"/>
      <point x="471.6" y="-10.0"/>
      <point x="494.0" y="-10.0" type="curve" smooth="yes"/>
    </contour>
    <contour>
      <point x="45.0" y="320.0" type="curve"/>
      <point x="45.0" y="307.0" type="line" smooth="yes"/>
      <point x="45.0" y="284.6"/>
      <point x="49.8" y="267.2"/>
      <point x="61.4" y="255.6" type="curve" smooth="yes"/>
      <point x="65.0" y="252.0"/>
      <point x="68.8" y="250.0"/>
      <point x="74.4" y="250.0" type="curve"/>
      <point x="141.15348837209302" y="250.0"/>
      <point x="190.24651162790695" y="250.0"/>
      <point x="257.0" y="250.0" type="curve"/>
      <point x="341.8" y="250.0"/>
      <point x="399.2" y="250.0"/>
      <point x="484.0" y="250.0" type="curve"/>
      <point x="484.0" y="263.0" type="line" smooth="yes"/>
      <point x="484.0" y="280.8"/>
      <point x="476.8" y="301.2"/>
      <point x="463.6" y="314.4" type="curve" smooth="yes"/>
      <point x="460.0" y="318.0"/>
      <point x="456.2" y="320.0"/>
      <point x="450.6" y="320.0" type="curve" smooth="yes"/>
      <point x="299.95710594315244" y="320.0"/>
      <point x="195.64289405684752" y="320.0"/>
    </contour>
  </outline>
</glyph>
<glyph name="I" format="2">
  <advance width="600.0"/>
  <unicode hex="0049"/>
  <outline>
    <contour>
      <point x="66.0" y="700.0" type="curve"/>
      <point x="66.0" y="687.0" type="line" smooth="yes"/>
      <point x="66.0" y="664.6"/>
      <point x="70.8" y="647.2"/>
      <point x="82.4" y="635.6" type="curve" smooth="yes"/>
      <point x="86.0" y="632.0"/>
      <point x="89.8" y="630.0"/>
      <point x="95.4" y="630.0" type="curve"/>
      <point x="156.2" y="630.0"/>
      <point x="196.2" y="630.0"/>
      <point x="257.0" y="630.0" type="curve"/>
      <point x="357.8" y="630.0"/>
      <point x="433.2" y="630.0"/>
      <point x="534.0" y="630.0" type="curve"/>
      <point x="534.0" y="643.0" type="line" smooth="yes"/>
      <point x="534.0" y="660.8"/>
      <point x="526.8" y="681.2"/>
      <point x="513.6" y="694.4" type="curve" smooth="yes"/>
      <point x="510.0" y="698.0"/>
      <point x="506.2" y="700.0"/>
      <point x="500.6" y="700.0" type="curve" smooth="yes"/>
      <point x="340.2" y="700.0"/>
      <point x="226.4" y="700.0"/>
    </contour>
    <contour>
      <point x="335.0" y="24.0" type="line"/>
      <point x="335.0" y="186.6"/>
      <point x="335.0" y="486.0"/>
      <point x="335.0" y="648.6" type="curve" smooth="yes"/>
      <point x="335.0" y="654.2"/>
      <point x="333.0" y="658.0"/>
      <point x="329.4" y="661.6" type="curve" smooth="yes"/>
      <point x="320.2" y="670.8"/>
      <point x="298.4" y="676.0"/>
      <point x="276.0" y="676.0" type="curve" smooth="yes"/>
      <point x="263.0" y="676.0" type="line"/>
      <point x="263.0" y="575.6"/>
      <point x="263.0" y="326.4"/>
      <point x="263.0" y="226.0" type="curve" smooth="yes"/>
      <point x="263.0" y="165.6"/>
      <point x="263.0" y="113.8"/>
      <point x="263.0" y="53.4" type="curve" smooth="yes"/>
      <point x="263.0" y="47.8"/>
      <point x="265.0" y="44.0"/>
      <point x="268.6" y="40.4" type="curve" smooth="yes"/>
      <point x="280.2" y="28.8"/>
      <point x="299.6" y="24.0"/>
      <point x="322.0" y="24.0" type="curve" smooth="yes"/>
    </contour>
    <contour>
      <point x="66.0" y="70.0" type="curve"/>
      <point x="66.0" y="57.0" type="line" smooth="yes"/>
      <point x="66.0" y="34.6"/>
      <point x="70.8" y="17.2"/>
      <point x="82.4" y="5.6" type="curve" smooth="yes"/>
      <point x="86.0" y="2.0"/>
      <point x="89.8" y="0.0"/>
      <point x="95.4" y="0.0" type="curve"/>
      <point x="156.2" y="0.0"/>
      <point x="196.2" y="0.0"/>
      <point x="257.0" y="0.0" type="curve"/>
      <point x="357.8" y="0.0"/>
      <point x="433.2" y="0.0"/>
      <point x="534.0" y="0.0" type="curve"/>
      <point x="534.0" y="13.0" type="line" smooth="yes"/>
      <point x="534.0" y="30.8"/>
      <point x="526.8" y="51.2"/>
      <point x="513.6" y="64.4" type="curve" smooth="yes"/>
      <point x="510.0" y="68.0"/>
      <point x="506.2" y="70.0"/>
      <point x="500.6" y="70.0" type="curve" smooth="yes"/>
      <point x="340.2" y="70.0"/>
      <point x="226.4" y="70.0"/>
    </contour>
  </outline>
</glyph>
<glyph name="L" format="2">
  <advance width="600.0"/>
  <unicode hex="004C"/>
  <outline>
    <contour>
      <point x="165.0" y="30.6" type="line"/>
      <point x="165.0" y="199.55"/>
      <point x="165.0" y="513.65"/>
      <point x="165.0" y="682.6" type="curve" smooth="yes"/>
      <point x="165.0" y="688.2"/>
      <point x="163.0" y="692.0"/>
      <point x="159.4" y="695.6" type="curve" smooth="yes"/>
      <point x="150.2" y="704.8"/>
      <point x="128.4" y="710.0"/>
      <point x="106.0" y="710.0" type="curve" smooth="yes"/>
      <point x="93.0" y="710.0" type="line"/>
      <point x="93.0" y="604.8"/>
      <point x="93.0" y="331.2"/>
      <point x="93.0" y="226.0" type="curve" smooth="yes"/>
      <point x="93.0" y="164.8"/>
      <point x="93.0" y="121.2"/>
      <point x="93.0" y="60.0" type="curve" smooth="yes"/>
      <point x="93.0" y="54.400000000000006"/>
      <point x="95.0" y="50.6"/>
      <point x="98.6" y="47.0" type="curve" smooth="yes"/>
      <point x="110.2" y="35.4"/>
      <point x="129.6" y="30.6"/>
      <point x="152.0" y="30.6" type="curve" smooth="yes"/>
    </contour>
    <contour>
      <point x="93.0" y="70.0" type="curve"/>
      <point x="93.0" y="57.0" type="line" smooth="yes"/>
      <point x="93.0" y="34.6"/>
      <point x="97.8" y="17.2"/>
      <point x="109.4" y="5.6" type="curve" smooth="yes"/>
      <point x="113.0" y="2.0"/>
      <point x="116.8" y="0.0"/>
      <point x="122.4" y="0.0" type="curve"/>
      <point x="173.6" y="0.0"/>
      <point x="193.8" y="0.0"/>
      <point x="245.0" y="0.0" type="curve" smooth="yes"/>
      <point x="346.5896103896104" y="0.0"/>
      <point x="436.4103896103896" y="0.0"/>
      <point x="538.0" y="0.0" type="curve"/>
      <point x="538.0" y="13.0" type="line" smooth="yes"/>
      <point x="538.0" y="30.8"/>
      <point x="530.8" y="51.2"/>
      <point x="517.6" y="64.4" type="curve" smooth="yes"/>
      <point x="514.0" y="68.0"/>
      <point x="510.2" y="70.0"/>
      <point x="504.6" y="70.0" type="curve" smooth="yes"/>
      <point x="352.64878048780486" y="70.0"/>
      <point x="244.9512195121951" y="70.0"/>
    </contour>
  </outline>
</glyph>
<glyph name="P" format="2">
  <advance width="600.0"/>
  <unicode hex="0050"/>
  <outline>
    <contour>
      <point x="45.0" y="700.0" type="curve"/>
      <point x="45.0" y="687.0" type="line" smooth="yes"/>
      <point x="45.0" y="663.8"/>
      <point x="48.4" y="645.6"/>
      <point x="58.4" y="635.6" type="curve" smooth="yes"/>
      <point x="62.8" y="631.2"/>
      <point x="68.2" y="630.0"/>
      <point x="73.0" y="630.0" type="curve" smooth="yes"/>
      <point x="80.6" y="630.0"/>
      <point x="90.0" y="631.2"/>
      <point x="105.0" y="634.2" type="curve" smooth="yes"/>
      <point x="155.4" y="643.2"/>
      <point x="229.8" y="650.0"/>
      <point x="297.0" y="650.0" type="curve" smooth="yes"/>
      <point x="379.4" y="650.0"/>
      <point x="421.4" y="633.6"/>
      <point x="472.8" y="587.8" type="curve"/>
      <point x="489.2" y="604.2"/>
      <point x="489.8" y="634.8"/>
      <point x="470.6" y="654.0" type="curve" smooth="yes"/>
      <point x="423.0" y="701.6"/>
      <point x="372.6" y="720.0"/>
      <point x="292.4" y="720.0" type="curve" smooth="yes"/>
      <point x="212.8" y="720.0"/>
      <point x="140.4" y="715.6"/>
    </contour>
    <contour>
      <point x="167.0" y="-10.0" type="line"/>
      <point x="167.0" y="163.8"/>
      <point x="167.0" y="482.8"/>
      <point x="167.0" y="656.6" type="curve" smooth="yes"/>
      <point x="167.0" y="662.2"/>
      <point x="165.0" y="666.0"/>
      <point x="161.4" y="669.6" type="curve" smooth="yes"/>
      <point x="152.2" y="678.8"/>
      <point x="130.4" y="684.0"/>
      <point x="108.0" y="684.0" type="curve" smooth="yes"/>
      <point x="95.0" y="684.0" type="line"/>
      <point x="95.0" y="567.0"/>
      <point x="95.0" y="313.0"/>
      <point x="95.0" y="196.0" type="curve" smooth="yes"/>
      <point x="95.0" y="137.6"/>
      <point x="95.0" y="77.8"/>
      <point x="95.0" y="19.4" type="curve" smooth="yes"/>
      <point x="95.0" y="13.8"/>
      <point x="97.0" y="10.0"/>
      <point x="100.6" y="6.4" type="curve" smooth="yes"/>
      <point x="112.2" y="-5.2"/>
      <point x="131.6" y="-10.0"/>
      <point x="154.0" y="-10.0" type="curve" smooth="yes"/>
    </contour>
    <contour>
      <point x="528.0" y="461.6" type="curve" smooth="yes"/>
      <point x="528.0" y="526.0" type="line" smooth="yes"/>
      <point x="528.0" y="569.8"/>
      <point x="507.6" y="617.6"/>
      <point x="470.6" y="654.0" type="curve" smooth="yes"/>
      <point x="452.2" y="671.8"/>
      <point x="413.6" y="670.8"/>
      <point x="397.8" y="656.4" type="curve"/>
      <point x="438.6" y="625.8"/>
      <point x="458.0" y="586.8"/>
      <point x="458.0" y="515.0" type="curve" smooth="yes"/>
      <point x="458.0" y="467.6" type="line" smooth="yes"/>
      <point x="458.0" y="342.2"/>
      <point x="342.6" y="248.0"/>
      <point x="187.2" y="248.0" type="curve" smooth="yes"/>
      <point x="174.4" y="248.0"/>
      <point x="165.2" y="248.4"/>
      <point x="153.8" y="250.0" type="curve"/>
      <point x="149.4" y="245.8"/>
      <point x="146.8" y="240.2"/>
      <point x="146.8" y="233.2" type="curve" smooth="yes"/>
      <point x="146.8" y="207.0"/>
      <point x="188.0" y="177.0"/>
      <point x="219.6" y="177.0" type="curve" smooth="yes"/>
      <point x="384.6" y="177.0"/>
      <point x="528.0" y="295.8"/>
    </contour>
  </outline>
</glyph>
<glyph name="R" format="2">
  <advance width="600.0"/>
  <unicode hex="0052"/>
  <outline>
    <contour>
      <point x="45.0" y="700.0" type="curve"/>
      <point x="45.0" y="687.0" type="line" smooth="yes"/>
      <point x="45.0" y="663.8"/>
      <point x="48.4" y="645.6"/>
      <point x="58.4" y="635.6" type="curve" smooth="yes"/>
      <point x="62.8" y="631.2"/>
      <point x="68.2" y="630.0"/>
      <point x="73.0" y="630.0" type="curve" smooth="yes"/>
      <point x="80.6" y="630.0"/>
      <point x="90.0" y="631.2"/>
      <point x="105.0" y="634.2" type="curve" smooth="yes"/>
      <point x="155.28920574598095" y="643.3546444775619"/>
      <point x="229.63312883435583" y="650.0"/>
      <point x="297.0" y="650.0" type="curve" smooth="yes"/>
      <point x="379.4" y="650.0"/>
      <point x="421.4" y="633.6"/>
      <point x="472.8" y="587.8" type="curve"/>
      <point x="489.2" y="604.2"/>
      <point x="489.8" y="634.8"/>
      <point x="470.6" y="654.0" type="curve" smooth="yes"/>
      <point x="423.0" y="701.6"/>
      <point x="372.6" y="720.0"/>
      <point x="292.4" y="720.0" type="curve" smooth="yes"/>
      <point x="213.06046511627906" y="720.0"/>
      <point x="140.29914112415653" y="715.2711261579103"/>
    </contour>
    <contour>
      <point x="167.0" y="-10.0" type="line"/>
      <point x="167.0" y="163.8"/>
      <point x="167.0" y="482.8"/>
      <point x="167.0" y="656.6" type="curve" smooth="yes"/>
      <point x="167.0" y="662.2"/>
      <point x="165.0" y="666.0"/>
      <point x="161.4" y="669.6" type="curve" smooth="yes"/>
      <point x="152.2" y="678.8"/>
      <point x="130.4" y="684.0"/>
      <point x="108.0" y="684.0" type="curve" smooth="yes"/>
      <point x="95.0" y="684.0" type="line"/>
      <point x="95.0" y="567.0"/>
      <point x="95.0" y="313.0"/>
      <point x="95.0" y="196.0" type="curve" smooth="yes"/>
      <point x="95.0" y="137.6"/>
      <point x="95.0" y="77.8"/>
      <point x="95.0" y="19.4" type="curve" smooth="yes"/>
      <point x="95.0" y="13.8"/>
      <point x="97.0" y="10.0"/>
      <point x="100.6" y="6.4" type="curve" smooth="yes"/>
      <point x="112.2" y="-5.2"/>
      <point x="131.6" y="-10.0"/>
      <point x="154.0" y="-10.0" type="curve" smooth="yes"/>
    </contour>
    <contour>
      <point x="528.0" y="483.6" type="curve" smooth="yes"/>
      <point x="528.0" y="526.0" type="line" smooth="yes"/>
      <point x="528.0" y="569.8"/>
      <point x="507.6" y="617.6"/>
      <point x="470.6" y="654.0" type="curve" smooth="yes"/>
      <point x="452.2" y="671.8"/>
      <point x="413.6" y="670.8"/>
      <point x="397.8" y="656.4" type="curve"/>
      <point x="438.6" y="625.8"/>
      <point x="458.0" y="586.8"/>
      <point x="458.0" y="515.0" type="curve" smooth="yes"/>
      <point x="458.0" y="489.6" type="line" smooth="yes"/>
      <point x="458.0" y="358.0"/>
      <point x="340.2" y="260.0"/>
      <point x="181.2" y="260.0" type="curve" smooth="yes"/>
      <point x="167.8" y="260.0"/>
      <point x="159.4" y="260.8"/>
      <point x="149.0" y="263.6" type="curve"/>
      <point x="143.4" y="258.8"/>
      <point x="140.8" y="252.8"/>
      <point x="140.8" y="245.2" type="curve" smooth="yes"/>
      <point x="140.8" y="219.8"/>
      <point x="178.4" y="195.0"/>
      <point x="208.4" y="195.0" type="curve" smooth="yes"/>
      <point x="380.2" y="195.0"/>
      <point x="528.0" y="318.6"/>
    </contour>
    <contour>
      <point x="311.0" y="265.0" type="line"/>
      <point x="274.6" y="242.2"/>
      <point x="256.6" y="220.2"/>
      <point x="264.8" y="209.0" type="curve" smooth="yes"/>
      <point x="384.2" y="55.0" type="line" smooth="yes"/>
      <point x="425.0" y="1.4000000000000001"/>
      <point x="458.6" y="-20.0"/>
      <point x="501.0" y="-20.0" type="curve" smooth="yes"/>
      <point x="532.6" y="-20.0"/>
      <point x="554.0" y="-4.4"/>
      <point x="554.0" y="19.4" type="curve" smooth="yes"/>
      <point x="554.0" y="70.0" type="line"/>
      <point x="543.0" y="70.0" type="line"/>
      <point x="535.6" y="61.2"/>
      <point x="520.2" y="54.0"/>
      <point x="508.0" y="54.0" type="curve" smooth="yes"/>
      <point x="482.0" y="54.0"/>
      <point x="460.6" y="68.0"/>
      <point x="437.4" y="99.6" type="curve" smooth="yes"/>
    </contour>
  </outline>
</glyph>
<glyph name="S" format="2">
  <advance width="600.0"/>
  <unicode hex="0053"/>
  <outline>
    <contour>
      <point x="373.0" y="298.2" type="curve" smooth="yes"/>
      <point x="286.2" y="329.8" type="line" smooth="yes"/>
      <point x="167.58185449913088" y="372.9383824767875"/>
      <point x="154.4" y="401.21875"/>
      <point x="154.4" y="440.6" type="curve" smooth="yes"/>
      <point x="154.4" y="459.0"/>
      <point x="156.0" y="478.2"/>
      <point x="162.2" y="505.6" type="curve"/>
      <point x="123.81823584377979" y="497.99056490376074"/>
      <point x="86.0" y="476.0"/>
      <point x="86.0" y="427.6" type="curve" smooth="yes"/>
      <point x="86.0" y="361.6"/>
      <point x="129.0" y="322.4"/>
      <point x="267.2" y="271.0" type="curve" smooth="yes"/>
      <point x="354.4" y="238.6" type="line" smooth="yes"/>
      <point x="454.5381466275493" y="201.34859660370256"/>
      <point x="479.19394577367206" y="166.56930780600527"/>
      <point x="480.0" y="104.8" type="curve"/>
      <point x="501.05882352941177" y="104.8"/>
      <point x="529.2" y="129.75"/>
      <point x="529.2" y="156.0" type="curve"/>
      <point x="529.2" y="213.02535211267605"/>
      <point x="482.2185873203113" y="258.44969168318056"/>
    </contour>
    <contour>
      <point x="300.0" y="-20.0" type="curve" smooth="yes"/>
      <point x="440.0" y="-20.0"/>
      <point x="529.2" y="37.8"/>
      <point x="529.2" y="122.8" type="curve" smooth="yes"/>
      <point x="529.2" y="156.0" type="line" smooth="yes"/>
      <point x="529.2" y="168.8"/>
      <point x="508.2" y="174.8"/>
      <point x="482.8" y="174.8" type="curve"/>
      <point x="478.0" y="89.8"/>
      <point x="419.8" y="50.0"/>
      <point x="300.0" y="50.0" type="curve" smooth="yes"/>
      <point x="200.6" y="50.0"/>
      <point x="135.8" y="84.2"/>
      <point x="85.4" y="149.6" type="curve"/>
      <point x="71.6" y="149.6" type="line"/>
      <point x="71.6" y="138.0"/>
      <point x="71.6" y="119.4"/>
      <point x="71.6" y="93.2" type="curve" smooth="yes"/>
      <point x="71.6" y="41.8"/>
      <point x="166.0" y="-20.0"/>
    </contour>
    <contour>
      <point x="395.0" y="720.0" type="curve" smooth="yes"/>
      <point x="268.8" y="720.0"/>
      <point x="86.0" y="563.8"/>
      <point x="86.0" y="458.2" type="curve" smooth="yes"/>
      <point x="86.0" y="427.6" type="line" smooth="yes"/>
      <point x="86.0" y="399.0"/>
      <point x="127.0" y="379.4"/>
      <point x="158.6" y="374.6" type="curve"/>
      <point x="154.4" y="397.4"/>
      <point x="154.4" y="418.0"/>
      <point x="154.4" y="440.6" type="curve" smooth="yes"/>
      <point x="154.4" y="522.4"/>
      <point x="303.0" y="652.8"/>
      <point x="395.4" y="652.8" type="curve" smooth="yes"/>
      <point x="421.0" y="652.8"/>
      <point x="443.0" y="649.4"/>
      <point x="465.4" y="635.4" type="curve"/>
      <point x="487.2" y="650.4"/>
      <point x="495.6" y="669.0"/>
      <point x="475.8" y="688.8" type="curve"/>
      <point x="454.8" y="709.8"/>
      <point x="423.4" y="720.0"/>
    </contour>
    <contour>
      <point x="505.0" y="450.0" type="line"/>
      <point x="505.0" y="611.0" type="line" smooth="yes"/>
      <point x="505.0" y="642.6"/>
      <point x="497.6" y="667.0"/>
      <point x="475.8" y="688.8" type="curve" smooth="yes"/>
      <point x="455.4" y="709.2"/>
      <point x="426.8" y="705.8"/>
      <point x="420.0" y="681.4" type="curve"/>
      <point x="433.4" y="660.2"/>
      <point x="435.0" y="644.6"/>
      <point x="435.0" y="619.8" type="curve" smooth="yes"/>
      <point x="435.0" y="479.4" type="line" smooth="yes"/>
      <point x="435.0" y="474.0"/>
      <point x="436.8" y="470.2"/>
      <point x="440.6" y="466.4" type="curve" smooth="yes"/>
      <point x="452.0" y="455.0"/>
      <point x="469.0" y="450.0"/>
      <point x="492.0" y="450.0" type="curve" smooth="yes"/>
    </contour>
  </outline>
</glyph>
<glyph name="T" format="2">
  <advance width="600.0"/>
  <unicode hex="0054"/>
  <outline>
    <contour>
      <point x="336.0" y="-11.0" type="line"/>
      <point x="336.0" y="157.13846153846154"/>
      <point x="336.0" y="480.46153846153845"/>
      <point x="336.0" y="648.6" type="curve" smooth="yes"/>
      <point x="336.0" y="654.2"/>
      <point x="334.0" y="658.0"/>
      <point x="330.4" y="661.6" type="curve" smooth="yes"/>
      <point x="321.2" y="670.8"/>
      <point x="299.4" y="676.0"/>
      <point x="277.0" y="676.0" type="curve" smooth="yes"/>
      <point x="264.0" y="676.0" type="line"/>
      <point x="264.0" y="575.6"/>
      <point x="264.0" y="316.4"/>
      <point x="264.0" y="216.0" type="curve" smooth="yes"/>
      <point x="264.0" y="147.65633802816902"/>
      <point x="264.0" y="86.74366197183099"/>
      <point x="264.0" y="18.4" type="curve" smooth="yes"/>
      <point x="264.0" y="12.8"/>
      <point x="266.0" y="9.0"/>
      <point x="269.6" y="5.4" type="curve" smooth="yes"/>
      <point x="281.2" y="-6.2"/>
      <point x="300.6" y="-11.0"/>
      <point x="323.0" y="-11.0" type="curve" smooth="yes"/>
    </contour>
    <contour>
      <point x="46.0" y="700.0" type="curve"/>
      <point x="46.0" y="687.0" type="line" smooth="yes"/>
      <point x="46.0" y="664.6"/>
      <point x="50.8" y="647.2"/>
      <point x="62.4" y="635.6" type="curve" smooth="yes"/>
      <point x="66.0" y="632.0"/>
      <point x="69.8" y="630.0"/>
      <point x="75.4" y="630.0" type="curve"/>
      <point x="142.15348837209302" y="630.0"/>
      <point x="178.24651162790695" y="630.0"/>
      <point x="245.0" y="630.0" type="curve"/>
      <point x="352.2603773584906" y="630.0"/>
      <point x="446.7396226415094" y="630.0"/>
      <point x="554.0" y="630.0" type="curve"/>
      <point x="554.0" y="643.0" type="line" smooth="yes"/>
      <point x="554.0" y="660.8"/>
      <point x="546.8" y="681.2"/>
      <point x="533.6" y="694.4" type="curve" smooth="yes"/>
      <point x="530.0" y="698.0"/>
      <point x="526.2" y="700.0"/>
      <point x="520.6" y="700.0" type="curve" smooth="yes"/>
      <point x="347.53304157549235" y="700.0"/>
      <point x="218.9217391304348" y="700.0"/>
    </contour>
  </outline>
</glyph>
<glyph name="a" format="2">
  <advance width="600.0"/>
  <unicode hex="0061"/>
  <outline>
    <contour>
      <point x="260.8" y="530.0" type="curve" smooth="yes"/>
      <point x="197.0" y="530.0"/>
      <point x="116.1697181271723" y="515.1697181271722"/>
      <point x="103.4" y="502.4" type="curve" smooth="yes"/>
      <point x="98.0" y="497.0"/>
      <point x="96.6" y="491.6"/>
      <point x="96.6" y="483.8" type="curve"/>
      <point x="96.6" y="436.4" type="line"/>
      <point x="108.6" y="436.4" type="line"/>
      <point x="152.0" y="452.4"/>
      <point x="217.33548387096775" y="462.0"/>
      <point x="275.8" y="462.0" type="curve" smooth="yes"/>
      <point x="352.9636363636364" y="462.0"/>
      <point x="384.2" y="453.8"/>
      <point x="433.8" y="425.6" type="curve"/>
      <point x="448.0" y="442.8"/>
      <point x="454.6385770250776" y="459.1614229749224"/>
      <point x="424.8" y="488.8" type="curve"/>
      <point x="392.85513450835424" y="520.4600170067972"/>
      <point x="340.0444444444444" y="530.0"/>
    </contour>
    <contour>
      <point x="376.8" y="487.6" type="curve"/>
      <point x="408.8" y="423.0"/>
      <point x="410.9871272257607" y="387.33177429653165"/>
      <point x="409.0" y="314.4" type="curve" smooth="yes"/>
      <point x="409.0" y="234.2"/>
      <point x="409.0" y="175.05185185185184"/>
      <point x="409.0" y="111.2" type="curve" smooth="yes"/>
      <point x="409.0" y="65.0"/>
      <point x="415.7515499597084" y="44.8484500402916"/>
      <point x="436.6" y="24.0" type="curve"/>
      <point x="454.2" y="6.4"/>
      <point x="489.8" y="6.800000000000001"/>
      <point x="500.2" y="24.0" type="curve"/>
      <point x="483.4" y="51.8"/>
      <point x="480.0" y="70.0"/>
      <point x="480.0" y="104.0" type="curve" smooth="yes"/>
      <point x="480.0" y="186.73333333333332"/>
      <point x="480.0" y="224.5037037037037"/>
      <point x="480.0" y="334.8" type="curve" smooth="yes"/>
      <point x="480.0" y="397.6074074074074"/>
      <point x="465.8512267081818" y="447.1487732918182"/>
      <point x="424.8" y="488.8" type="curve"/>
      <point x="411.33962462279175" y="502.46037537720827"/>
      <point x="388.8" y="496.2"/>
    </contour>
    <contour>
      <point x="432.8" y="256.2" type="curve" smooth="yes"/>
      <point x="416.3583595511561" y="272.6416404488439"/>
      <point x="349.9551020408163" y="284.0"/>
      <point x="262.0" y="284.0" type="curve" smooth="yes"/>
      <point x="186.64761904761903" y="284.0"/>
      <point x="144.80637337585694" y="272.20637337585697"/>
      <point x="117.8" y="245.2" type="curve" smooth="yes"/>
      <point x="100.4" y="227.8"/>
      <point x="97.8" y="206.6"/>
      <point x="103.2" y="189.0" type="curve"/>
      <point x="145.92802908580865" y="217.58001817863038"/>
      <point x="181.56774193548387" y="225.0"/>
      <point x="245.0" y="225.0" type="curve" smooth="yes"/>
      <point x="314.53513513513514" y="225.0"/>
      <point x="385.76415674924704" y="223.36247845731495"/>
      <point x="445.2" y="212.2" type="curve"/>
      <point x="445.6" y="233.0"/>
      <point x="442.6090234127388" y="246.39097658726124"/>
    </contour>
    <contour>
      <point x="140.0" y="126.0" type="curve" smooth="yes"/>
      <point x="140.0" y="150.8" type="line" smooth="yes"/>
      <point x="140.0" y="214.6"/>
      <point x="147.8" y="229.8"/>
      <point x="184.8" y="259.4" type="curve"/>
      <point x="159.6" y="267.2"/>
      <point x="129.0" y="256.4"/>
      <point x="117.8" y="245.2" type="curve" smooth="yes"/>
      <point x="79.2" y="206.6"/>
      <point x="70.0" y="186.6"/>
      <point x="70.0" y="148.0" type="curve" smooth="yes"/>
      <point x="70.0" y="120.0" type="line" smooth="yes"/>
      <point x="70.0" y="25.4"/>
      <point x="114.0" y="-20.0"/>
      <point x="196.2" y="-20.0" type="curve" smooth="yes"/>
      <point x="298.2" y="-20.0"/>
      <point x="377.6" y="30.4"/>
      <point x="417.0" y="95.0" type="curve" smooth="yes"/>
      <point x="427.0" y="111.0"/>
      <point x="431.0" y="126.0"/>
      <point x="431.0" y="160.8" type="curve"/>
      <point x="363.4" y="75.6"/>
      <point x="297.2" y="48.8"/>
      <point x="226.0" y="48.8" type="curve" smooth="yes"/>
      <point x="204.0" y="48.8" type="line" smooth="yes"/>
      <point x="161.0" y="48.8"/>
      <point x="140.0" y="70.80000000000001"/>
    </contour>
    <contour>
      <point x="504.4" y="-10.0" type="curve" smooth="yes"/>
      <point x="541.7806451612903" y="-10.0"/>
      <point x="559.0" y="4.0"/>
      <point x="559.0" y="34.2" type="curve"/>
      <point x="559.0" y="70.0" type="line"/>
      <point x="546.0" y="70.0" type="line"/>
      <point x="534.5178799178339" y="67.39011689779504"/>
      <point x="522.6979591836734" y="62.0"/>
      <point x="506.8" y="62.0" type="curve" smooth="yes"/>
      <point x="484.5826086956522" y="62.0"/>
      <point x="462.39283653299543" y="64.60358173350227"/>
      <point x="437.6" y="72.4" type="curve"/>
      <point x="426.2" y="61.0"/>
      <point x="425.6" y="35.0"/>
      <point x="436.6" y="24.0" type="curve"/>
      <point x="454.09731312208413" y="7.238209243778996"/>
      <point x="479.8" y="-10.0"/>
    </contour>
  </outline>
</glyph>
<glyph name="b" format="2">
  <advance width="600.0"/>
  <unicode hex="0062"/>
  <outline>
    <contour>
      <point x="165.0" y="-10.0" type="line"/>
      <point x="165.0" y="189.6"/>
      <point x="165.0" y="535.0"/>
      <point x="165.0" y="724.6" type="curve" smooth="yes"/>
      <point x="165.0" y="730.2"/>
      <point x="163.0" y="734.0"/>
      <point x="159.4" y="737.6" type="curve" smooth="yes"/>
      <point x="150.2" y="746.8"/>
      <point x="128.4" y="752.0"/>
      <point x="106.0" y="752.0" type="curve" smooth="yes"/>
      <point x="93.0" y="752.0" type="line"/>
      <point x="93.0" y="610.6"/>
      <point x="93.0" y="519.4"/>
      <point x="93.0" y="378.0" type="curve" smooth="yes"/>
      <point x="93.0" y="312.0"/>
      <point x="93.0" y="85.4"/>
      <point x="93.0" y="19.4" type="curve" smooth="yes"/>
      <point x="93.0" y="13.8"/>
      <point x="95.0" y="10.0"/>
      <point x="98.6" y="6.4" type="curve" smooth="yes"/>
      <point x="110.2" y="-5.2"/>
      <point x="129.6" y="-10.0"/>
      <point x="152.0" y="-10.0" type="curve" smooth="yes"/>
    </contour>
    <contour>
      <point x="373.8" y="528.0" type="curve" smooth="yes"/>
      <point x="293.226060296372" y="528.0"/>
      <point x="214.15068117041534" y="476.65657375073704"/>
      <point x="161.0" y="406.0" type="curve" smooth="yes"/>
      <point x="142.4" y="382.2"/>
      <point x="135.8" y="359.8"/>
      <point x="137.4" y="326.8" type="curve"/>
      <point x="234.0944889408133" y="426.51511663097176"/>
      <point x="291.18473244562074" y="456.0"/>
      <point x="371.0" y="456.0" type="curve" smooth="yes"/>
      <point x="435.0" y="456.0"/>
      <point x="483.0" y="397.4"/>
      <point x="496.2" y="307.2" type="curve"/>
      <point x="530.0" y="310.4"/>
      <point x="540.0" y="320.6"/>
      <point x="540.0" y="330.8" type="curve" smooth="yes"/>
      <point x="540.0" y="441.8"/>
      <point x="460.0" y="528.0"/>
    </contour>
    <contour>
      <point x="315.6" y="-20.0" type="curve" smooth="yes"/>
      <point x="464.4277981651376" y="-20.0"/>
      <point x="540.0" y="97.4"/>
      <point x="540.0" y="296.0" type="curve" smooth="yes"/>
      <point x="540.0" y="330.8" type="line" smooth="yes"/>
      <point x="540.0" y="379.4"/>
      <point x="499.6" y="451.4"/>
      <point x="464.8" y="451.4" type="curve"/>
      <point x="447.8" y="451.4"/>
      <point x="436.2" y="448.0"/>
      <point x="434.6" y="437.8" type="curve"/>
      <point x="455.8" y="398.2"/>
      <point x="467.0" y="369.6"/>
      <point x="467.0" y="318.8" type="curve" smooth="yes"/>
      <point x="467.0" y="296.0" type="line" smooth="yes"/>
      <point x="467.0" y="137.2"/>
      <point x="411.40361509835196" y="49.0"/>
      <point x="298.2" y="49.0" type="curve" smooth="yes"/>
      <point x="240.0" y="49.0"/>
      <point x="203.08025477707005" y="70.6"/>
      <point x="156.0" y="119.4" type="curve"/>
      <point x="150.4" y="118.6"/>
      <point x="147.8" y="114.0"/>
      <point x="147.8" y="107.6" type="curve"/>
      <point x="147.8" y="58.4"/>
      <point x="231.6" y="-20.0"/>
    </contour>
  </outline>
</glyph>
<glyph name="c" format="2">
  <advance width="600.0"/>
  <unicode hex="0063"/>
  <outline>
    <contour>
      <point x="360.6" y="530.0" type="curve" smooth="yes"/>
      <point x="208.1491017964072" y="530.0"/>
      <point x="70.0" y="416.4"/>
      <point x="70.0" y="233.0" type="curve" smooth="yes"/>
      <point x="70.0" y="203.0" type="line" smooth="yes"/>
      <point x="70.0" y="143.2"/>
      <point x="94.55168392765151" y="80.44831607234849"/>
      <point x="132.0" y="43.0" type="curve" smooth="yes"/>
      <point x="144.2" y="30.8"/>
      <point x="180.0" y="26.4"/>
      <point x="191.4" y="39.4" type="curve"/>
      <point x="160.45546789154918" y="91.02302536147494"/>
      <point x="138.4" y="139.09846153846152"/>
      <point x="138.4" y="190.0" type="curve" smooth="yes"/>
      <point x="138.4" y="217.6" type="line" smooth="yes"/>
      <point x="138.4" y="348.8"/>
      <point x="226.62857142857143" y="460.0"/>
      <point x="358.8" y="460.0" type="curve" smooth="yes"/>
      <point x="423.9263157894737" y="460.0"/>
      <point x="461.4" y="437.6"/>
      <point x="484.6" y="411.2" type="curve"/>
      <point x="506.4" y="427.0"/>
      <point x="515.4" y="449.2"/>
      <point x="485.8" y="478.8" type="curve"/>
      <point x="447.6" y="517.0"/>
      <point x="422.2" y="530.0"/>
    </contour>
    <contour>
      <point x="131.0" y="106.2" type="curve"/>
      <point x="121.2" y="98.0"/>
      <point x="106.0" y="69.0"/>
      <point x="132.0" y="43.0" type="curve" smooth="yes"/>
      <point x="171.2357420166129" y="2.957709594036743"/>
      <point x="208.8651851851852" y="-20.0"/>
      <point x="274.0" y="-20.0" type="curve" smooth="yes"/>
      <point x="314.8" y="-20.0" type="line" smooth="yes"/>
      <point x="414.6" y="-20.0"/>
      <point x="477.0" y="2.0"/>
      <point x="511.2" y="36.2" type="curve" smooth="yes"/>
      <point x="521.6" y="46.6"/>
      <point x="523.4" y="54.8"/>
      <point x="523.4" y="66.8" type="curve" smooth="yes"/>
      <point x="523.4" y="82.4"/>
      <point x="523.4" y="100.4"/>
      <point x="523.4" y="115.0" type="curve"/>
      <point x="510.4" y="115.0" type="line"/>
      <point x="459.4" y="61.6"/>
      <point x="394.8" y="50.0"/>
      <point x="300.0" y="50.0" type="curve" smooth="yes"/>
      <point x="215.18682170542635" y="50.0"/>
      <point x="175.839457392944" y="63.55964584812543"/>
    </contour>
    <contour>
      <point x="525.0" y="292.0" type="line"/>
      <point x="525.0" y="390.6" type="line" smooth="yes"/>
      <point x="525.0" y="425.4"/>
      <point x="514.6" y="450.0"/>
      <point x="485.8" y="478.8" type="curve" smooth="yes"/>
      <point x="466.2" y="498.4"/>
      <point x="434.0" y="490.2"/>
      <point x="423.2" y="478.6" type="curve"/>
      <point x="443.8" y="459.0"/>
      <point x="455.0" y="423.4"/>
      <point x="455.0" y="393.0" type="curve" smooth="yes"/>
      <point x="455.0" y="321.4" type="line" smooth="yes"/>
      <point x="455.0" y="316.0"/>
      <point x="456.8" y="312.2"/>
      <point x="460.6" y="308.4" type="curve" smooth="yes"/>
      <point x="472.0" y="297.0"/>
      <point x="489.0" y="292.0"/>
      <point x="512.0" y="292.0" type="curve" smooth="yes"/>
    </contour>
  </outline>
</glyph>
<glyph name="d" format="2">
  <advance width="600.0"/>
  <unicode hex="0064"/>
  <outline>
    <contour>
      <point x="298.0" y="530.0" type="curve" smooth="yes"/>
      <point x="152.0911111111111" y="530.0"/>
      <point x="68.0" y="403.6"/>
      <point x="68.0" y="212.0" type="curve" smooth="yes"/>
      <point x="68.0" y="183.2" type="line" smooth="yes"/>
      <point x="68.0" y="137.6"/>
      <point x="99.6" y="70.4"/>
      <point x="133.0" y="70.4" type="curve"/>
      <point x="146.2" y="70.4"/>
      <point x="155.0" y="73.4"/>
      <point x="156.6" y="82.6" type="curve"/>
      <point x="147.6" y="111.6"/>
      <point x="141.0" y="146.2"/>
      <point x="141.0" y="199.2" type="curve" smooth="yes"/>
      <point x="141.0" y="220.0" type="line" smooth="yes"/>
      <point x="141.0" y="359.2"/>
      <point x="196.89714285714285" y="463.0"/>
      <point x="309.0" y="463.0" type="curve" smooth="yes"/>
      <point x="368.0" y="463.0"/>
      <point x="405.8" y="442.2"/>
      <point x="452.0" y="416.6" type="curve"/>
      <point x="459.0" y="417.6"/>
      <point x="461.2" y="427.8"/>
      <point x="458.8" y="436.0" type="curve"/>
      <point x="453.0" y="472.4"/>
      <point x="373.8" y="530.0"/>
    </contour>
    <contour>
      <point x="507.0" y="-10.0" type="line"/>
      <point x="507.0" y="191.2"/>
      <point x="507.0" y="541.4"/>
      <point x="507.0" y="732.6" type="curve" smooth="yes"/>
      <point x="507.0" y="738.2"/>
      <point x="505.0" y="742.0"/>
      <point x="501.4" y="745.6" type="curve" smooth="yes"/>
      <point x="492.2" y="754.8"/>
      <point x="470.4" y="760.0"/>
      <point x="448.0" y="760.0" type="curve" smooth="yes"/>
      <point x="435.0" y="760.0" type="line"/>
      <point x="435.0" y="620.2"/>
      <point x="435.0" y="529.8"/>
      <point x="435.0" y="390.0" type="curve" smooth="yes"/>
      <point x="435.0" y="320.0"/>
      <point x="435.0" y="89.4"/>
      <point x="435.0" y="19.4" type="curve" smooth="yes"/>
      <point x="435.0" y="13.8"/>
      <point x="437.0" y="10.0"/>
      <point x="440.6" y="6.4" type="curve" smooth="yes"/>
      <point x="452.2" y="-5.2"/>
      <point x="471.6" y="-10.0"/>
      <point x="494.0" y="-10.0" type="curve" smooth="yes"/>
    </contour>
    <contour>
      <point x="226.2" y="-18.0" type="curve" smooth="yes"/>
      <point x="305.7213081246806" y="-18.0"/>
      <point x="387.2729213975493" y="35.37918809548994"/>
      <point x="439.0" y="104.0" type="curve" smooth="yes"/>
      <point x="457.8" y="127.8"/>
      <point x="464.2" y="150.2"/>
      <point x="462.6" y="183.2" type="curve"/>
      <point x="365.90551105918667" y="83.48488336902824"/>
      <point x="308.81526755437926" y="54.0"/>
      <point x="229.0" y="54.0" type="curve" smooth="yes"/>
      <point x="156.6" y="54.0"/>
      <point x="124.6" y="132.0"/>
      <point x="106.0" y="226.0" type="curve"/>
      <point x="76.2" y="222.8"/>
      <point x="68.0" y="203.0"/>
      <point x="68.0" y="183.2" type="curve" smooth="yes"/>
      <point x="68.0" y="81.4"/>
      <point x="124.0" y="-18.0"/>
    </contour>
  </outline>
</glyph>
<glyph name="e" format="2">
  <advance width="600.0"/>
  <unicode hex="0065"/>
  <outline>
    <contour>
      <point x="345.8" y="530.0" type="curve"/>
      <point x="189.6" y="530.0"/>
      <point x="70.0" y="457.8081632653061"/>
      <point x="70.0" y="261.0" type="curve" smooth="yes"/>
      <point x="70.0" y="201.0" type="line"/>
      <point x="70.0" y="135.83076923076925"/>
      <point x="91.84963670528995" y="84.75036329471004"/>
      <point x="128.8" y="47.8" type="curve"/>
      <point x="141.4248314585811" y="35.1751685414189"/>
      <point x="166.56352563746495" y="34.608966342148065"/>
      <point x="183.4" y="48.2" type="curve"/>
      <point x="154.0" y="97.0"/>
      <point x="138.4" y="137.8"/>
      <point x="138.4" y="190.2" type="curve" smooth="yes"/>
      <point x="138.4" y="257.8" type="line" smooth="yes"/>
      <point x="138.4" y="400.8410256410256"/>
      <point x="207.4" y="460.0"/>
      <point x="341.8" y="460.0" type="curve" smooth="yes"/>
      <point x="405.60571428571427" y="460.0"/>
      <point x="451.58031507508457" y="446.9910757797519"/>
      <point x="473.6" y="398.0" type="curve"/>
      <point x="488.6" y="398.0"/>
      <point x="496.6" y="408.0"/>
      <point x="496.6" y="421.4" type="curve"/>
      <point x="496.6" y="483.59540229885056"/>
      <point x="413.52830188679246" y="530.0"/>
    </contour>
    <contour>
      <point x="358.8" y="215.0" type="line" smooth="yes"/>
      <point x="487.42622950819674" y="215.0"/>
      <point x="530.0" y="273.5103448275862"/>
      <point x="530.0" y="348.0" type="curve" smooth="yes"/>
      <point x="530.0" y="385.2" type="line" smooth="yes"/>
      <point x="530.0" y="463.0"/>
      <point x="454.8" y="530.0"/>
      <point x="363.0" y="530.0" type="curve" smooth="yes"/>
      <point x="345.8" y="530.0" type="line" smooth="yes"/>
      <point x="324.0" y="530.0"/>
      <point x="310.2" y="515.0"/>
      <point x="310.2" y="492.0" type="curve"/>
      <point x="384.2" y="492.0"/>
      <point x="460.0" y="457.814953271028"/>
      <point x="460.0" y="378.6" type="curve" smooth="yes"/>
      <point x="460.0" y="351.6" type="line" smooth="yes"/>
      <point x="460.0" y="291.61960784313726"/>
      <point x="427.33236714975845" y="275.0"/>
      <point x="348.2" y="275.0" type="curve" smooth="yes"/>
      <point x="252.0698224852071" y="275.0"/>
      <point x="200.87928994082841" y="275.0"/>
      <point x="118.2" y="275.0" type="curve"/>
      <point x="117.6" y="270.0"/>
      <point x="118.2" y="265.0"/>
      <point x="120.6" y="260.6" type="curve"/>
      <point x="131.0" y="240.2"/>
      <point x="179.8" y="215.0"/>
      <point x="238.4" y="215.0" type="curve" smooth="yes"/>
    </contour>
    <contour>
      <point x="110.2" y="155.0" type="curve"/>
      <point x="87.6" y="132.4"/>
      <point x="97.2" y="79.4"/>
      <point x="128.8" y="47.8" type="curve"/>
      <point x="171.8" y="4.0"/>
      <point x="221.6" y="-20.0"/>
      <point x="293.2" y="-20.0" type="curve" smooth="yes"/>
      <point x="310.8" y="-20.0" type="line" smooth="yes"/>
      <point x="406.6" y="-20.0"/>
      <point x="483.4" y="6.0"/>
      <point x="511.2" y="38.6" type="curve" smooth="yes"/>
      <point x="520.8" y="49.8"/>
      <point x="523.4" y="58.8"/>
      <point x="523.4" y="70.8" type="curve"/>
      <point x="523.4" y="78.4"/>
      <point x="523.4" y="108.4"/>
      <point x="523.4" y="115.0" type="curve"/>
      <point x="510.4" y="115.0" type="line"/>
      <point x="459.4" y="61.6"/>
      <point x="394.8" y="50.0"/>
      <point x="300.0" y="50.0" type="curve" smooth="yes"/>
      <point x="207.4" y="50.0"/>
      <point x="155.0" y="75.6"/>
    </contour>
  </outline>
</glyph>
<glyph name="f" format="2">
  <advance width="600.0"/>
  <unicode hex="0066"/>
  <outline>
    <contour>
      <point x="251.8" y="633.6" type="curve"/>
      <point x="286.8993746766556" y="673.4979603788254"/>
      <point x="324.3934065934066" y="688.0"/>
      <point x="400.0" y="688.0" type="curve" smooth="yes"/>
      <point x="457.2" y="688.0"/>
      <point x="507.0" y="673.4"/>
      <point x="542.0" y="655.0" type="curve"/>
      <point x="555.0" y="655.0" type="line"/>
      <point x="555.0" y="672.8" type="line"/>
      <point x="555.0" y="698.1010256070932"/>
      <point x="550.0138320264433" y="712.5834015682681"/>
      <point x="543.0" y="720.2" type="curve" smooth="yes"/>
      <point x="530.6039367580978" y="733.2174106289915"/>
      <point x="473.3064935064935" y="755.0"/>
      <point x="414.0" y="755.0" type="curve"/>
      <point x="402.0" y="755.0" type="line"/>
      <point x="336.39652855543113" y="755.0"/>
      <point x="288.54364209299825" y="743.7436420929984"/>
      <point x="244.6" y="699.8" type="curve" smooth="yes"/>
      <point x="228.49585957284341" y="683.6958595728435"/>
      <point x="232.1109216085447" y="652.8930334017122"/>
    </contour>
    <contour>
      <point x="265.0" y="-10.0" type="line"/>
      <point x="265.0" y="177.2068783068783"/>
      <point x="265.0" y="351.2282627865961"/>
      <point x="265.0" y="500.0" type="curve" smooth="yes"/>
      <point x="261.8901616727503" y="599.571732054436"/>
      <point x="257.6" y="637.5847457627119"/>
      <point x="304.0" y="705.2" type="curve"/>
      <point x="287.21903318654415" y="717.5478012943709"/>
      <point x="258.2517044900343" y="713.4517044900342"/>
      <point x="244.6" y="699.8" type="curve" smooth="yes"/>
      <point x="210.4" y="665.6"/>
      <point x="195.0" y="628.7263157894738"/>
      <point x="195.0" y="552.6" type="curve"/>
      <point x="195.0" y="410.26732673267327"/>
      <point x="195.0" y="214.83366336633662"/>
      <point x="195.0" y="19.4" type="curve"/>
      <point x="195.0" y="13.8"/>
      <point x="197.0" y="10.0"/>
      <point x="200.6" y="6.4" type="curve" smooth="yes"/>
      <point x="212.2" y="-5.2"/>
      <point x="229.6" y="-10.0"/>
      <point x="252.0" y="-10.0" type="curve" smooth="yes"/>
    </contour>
    <contour>
      <point x="45.0" y="460.0" type="curve"/>
      <point x="45.0" y="447.0" type="line" smooth="yes"/>
      <point x="45.0" y="424.0"/>
      <point x="50.0" y="407.0"/>
      <point x="61.4" y="395.6" type="curve" smooth="yes"/>
      <point x="65.2" y="391.8"/>
      <point x="69.0" y="390.0"/>
      <point x="74.4" y="390.0" type="curve"/>
      <point x="135.68275862068964" y="390.0"/>
      <point x="200.71724137931034" y="390.0"/>
      <point x="262.0" y="390.0" type="curve"/>
      <point x="337.6923076923077" y="390.0"/>
      <point x="437.0" y="390.0"/>
      <point x="510.0" y="390.0" type="curve"/>
      <point x="510.0" y="403.0" type="line" smooth="yes"/>
      <point x="510.0" y="426.2"/>
      <point x="505.0" y="443.0"/>
      <point x="493.6" y="454.4" type="curve" smooth="yes"/>
      <point x="489.8" y="458.2"/>
      <point x="486.0" y="460.0"/>
      <point x="480.6" y="460.0" type="curve" smooth="yes"/>
      <point x="347.1258426966292" y="460.0"/>
      <point x="178.68539325842696" y="460.0"/>
    </contour>
  </outline>
</glyph>
<glyph name="g" format="2">
  <advance width="600.0"/>
  <unicode hex="0067"/>
  <outline>
    <contour>
      <point x="311.0" y="465.0" type="curve" smooth="yes"/>
      <point x="370.13116863683973" y="465.0"/>
      <point x="427.5500551415277" y="451.52493566821767"/>
      <point x="456.0" y="424.0" type="curve"/>
      <point x="474.0" y="445.8"/>
      <point x="474.0" y="475.0"/>
      <point x="459.6" y="489.4" type="curve" smooth="yes"/>
      <point x="428.0635896240881" y="520.9364103759119"/>
      <point x="354.76725146198834" y="530.0"/>
      <point x="303.0" y="530.0" type="curve" smooth="yes"/>
      <point x="177.0" y="530.0"/>
      <point x="76.0" y="459.9555555555556"/>
      <point x="76.0" y="352.0" type="curve" smooth="yes"/>
      <point x="76.0" y="323.0" type="line" smooth="yes"/>
      <point x="76.0" y="271.01514510859124"/>
      <point x="93.52841305985883" y="240.87158694014116"/>
      <point x="131.8" y="202.6" type="curve" smooth="yes"/>
      <point x="141.2" y="193.2"/>
      <point x="189.4" y="194.0"/>
      <point x="195.2" y="201.2" type="curve"/>
      <point x="161.46981745771558" y="238.98565352412402"/>
      <point x="144.0" y="264.35443275704813"/>
      <point x="144.0" y="308.6" type="curve" smooth="yes"/>
      <point x="144.0" y="329.8" type="line" smooth="yes"/>
      <point x="144.0" y="422.8143790849673"/>
      <point x="208.35702479338843" y="465.0"/>
    </contour>
    <contour>
      <point x="297.0" y="213.0" type="curve" smooth="yes"/>
      <point x="230.0" y="213.0"/>
      <point x="187.0" y="219.6"/>
      <point x="130.8" y="257.8" type="curve"/>
      <point x="118.2" y="237.0"/>
      <point x="113.0" y="221.6"/>
      <point x="131.8" y="202.6" type="curve" smooth="yes"/>
      <point x="177.0" y="157.4"/>
      <point x="226.8" y="147.0"/>
      <point x="309.0" y="147.0" type="curve" smooth="yes"/>
      <point x="440.0" y="147.0"/>
      <point x="524.0" y="230.63"/>
      <point x="524.0" y="338.0" type="curve" smooth="yes"/>
      <point x="524.0" y="367.0" type="line" smooth="yes"/>
      <point x="524.0" y="409.7511177347243"/>
      <point x="507.0216379922015" y="441.9783620077986"/>
      <point x="459.6" y="489.4" type="curve" smooth="yes"/>
      <point x="445.6" y="503.4"/>
      <point x="406.2" y="503.4"/>
      <point x="387.2" y="487.6" type="curve"/>
      <point x="436.95070222267685" y="446.894879999628"/>
      <point x="456.0" y="416.6652455977757"/>
      <point x="456.0" y="365.0" type="curve" smooth="yes"/>
      <point x="456.0" y="336.8" type="line" smooth="yes"/>
      <point x="456.0" y="264.60900709219857"/>
      <point x="393.6" y="213.0"/>
    </contour>
    <contour>
      <point x="190.0" y="64.6" type="curve" smooth="yes"/>
      <point x="190.0" y="51.6" type="line" smooth="yes"/>
      <point x="190.0" y="-2.7777777777777786"/>
      <point x="226.6" y="-32.0"/>
      <point x="294.0" y="-32.0" type="curve" smooth="yes"/>
      <point x="423.0" y="-32.0" type="line" smooth="yes"/>
      <point x="460.0814814814815" y="-32.0"/>
      <point x="485.4" y="-63.07272727272728"/>
      <point x="485.4" y="-103.4" type="curve" smooth="yes"/>
      <point x="485.4" y="-124.8" type="line" smooth="yes"/>
      <point x="485.4" y="-163.6"/>
      <point x="479.8" y="-174.0"/>
      <point x="459.8" y="-200.0" type="curve"/>
      <point x="470.6" y="-206.4"/>
      <point x="499.6" y="-205.0"/>
      <point x="508.8" y="-195.8" type="curve" smooth="yes"/>
      <point x="541.2" y="-163.4"/>
      <point x="555.0" y="-139.8"/>
      <point x="555.0" y="-100.0" type="curve" smooth="yes"/>
      <point x="555.0" y="-84.0" type="line" smooth="yes"/>
      <point x="555.0" y="-17.34510150044131"/>
      <point x="500.8689679971234" y="35.0"/>
      <point x="431.0" y="35.0" type="curve" smooth="yes"/>
      <point x="289.4" y="35.0" type="line" smooth="yes"/>
      <point x="265.2" y="35.0"/>
      <point x="258.0" y="42.2"/>
      <point x="258.0" y="66.4" type="curve" smooth="yes"/>
      <point x="258.0" y="88.4" type="line" smooth="yes"/>
      <point x="258.0" y="115.96521739130435"/>
      <point x="270.8871123253165" y="153.6455318085795"/>
      <point x="286.0" y="168.6" type="curve"/>
      <point x="286.0" y="175.4"/>
      <point x="282.8" y="178.4"/>
      <point x="274.0" y="179.6" type="curve" smooth="yes"/>
      <point x="247.12" y="179.6"/>
      <point x="190.0" y="112.91990244752198"/>
    </contour>
    <contour>
      <point x="521.0" y="-139.6" type="curve"/>
      <point x="453.0" y="-186.4"/>
      <point x="409.6" y="-190.0"/>
      <point x="328.6" y="-190.0" type="curve"/>
      <point x="234.0" y="-190.0" type="line"/>
      <point x="157.08551521818848" y="-190.0"/>
      <point x="115.4" y="-166.52941176470588"/>
      <point x="115.4" y="-119.0" type="curve" smooth="yes"/>
      <point x="115.4" y="-94.0" type="line" smooth="yes"/>
      <point x="115.4" y="-59.35922330097087"/>
      <point x="142.8" y="-17.4"/>
      <point x="231.8" y="8.2" type="curve"/>
      <point x="231.8" y="20.53333333333333"/>
      <point x="225.9" y="33.2"/>
      <point x="213.6" y="33.2" type="curve"/>
      <point x="117.23098591549295" y="33.2"/>
      <point x="45.8" y="-26.52631578947369"/>
      <point x="45.8" y="-105.8" type="curve" smooth="yes"/>
      <point x="45.8" y="-129.0" type="line" smooth="yes"/>
      <point x="45.8" y="-195.4"/>
      <point x="116.68503600960256" y="-250.0"/>
      <point x="217.0" y="-250.0" type="curve"/>
      <point x="288.0" y="-250.0" type="line"/>
      <point x="391.6" y="-250.0"/>
      <point x="468.6" y="-236.0"/>
      <point x="508.8" y="-195.8" type="curve"/>
      <point x="525.2" y="-179.4"/>
      <point x="531.6" y="-150.2"/>
    </contour>
    <contour>
      <point x="447.6" y="470.6" type="curve" smooth="yes"/>
      <point x="514.8" y="534.8" type="line" smooth="yes"/>
      <point x="541.6" y="560.2"/>
      <point x="555.0" y="571.4"/>
      <point x="555.0" y="604.2" type="curve" smooth="yes"/>
      <point x="555.0" y="605.8"/>
      <point x="555.0" y="613.4"/>
      <point x="555.0" y="615.6" type="curve" smooth="yes"/>
      <point x="555.0" y="621.2"/>
      <point x="553.0" y="625.0"/>
      <point x="549.4" y="628.6" type="curve" smooth="yes"/>
      <point x="537.8" y="640.2"/>
      <point x="519.2" y="645.0"/>
      <point x="496.0" y="645.0" type="curve" smooth="yes"/>
      <point x="485.0" y="645.0" type="line"/>
      <point x="485.0" y="642.0"/>
      <point x="485.0" y="631.2"/>
      <point x="485.0" y="628.2" type="curve" smooth="yes"/>
      <point x="485.0" y="608.4"/>
      <point x="479.0" y="595.6"/>
      <point x="470.4" y="578.6" type="curve" smooth="yes"/>
      <point x="418.6" y="477.0" type="line"/>
      <point x="424.52990218333906" y="468.4550768559479"/>
      <point x="439.6" y="463.4"/>
    </contour>
  </outline>
</glyph>
<glyph name="h" format="2">
  <advance width="600.0"/>
  <unicode hex="0068"/>
  <outline>
    <contour>
      <point x="165.0" y="-10.0" type="line"/>
      <point x="165.0" y="154.25751633986928"/>
      <point x="165.0" y="570.3424836601307"/>
      <point x="165.0" y="724.6" type="curve" smooth="yes"/>
      <point x="165.0" y="730.2"/>
      <point x="163.0" y="734.0"/>
      <point x="159.4" y="737.6" type="curve" smooth="yes"/>
      <point x="150.2" y="746.8"/>
      <point x="128.4" y="752.0"/>
      <point x="106.0" y="752.0" type="curve" smooth="yes"/>
      <point x="93.0" y="752.0" type="line"/>
      <point x="93.0" y="643.8033333333333"/>
      <point x="93.0" y="296.19666666666666"/>
      <point x="93.0" y="188.0" type="curve" smooth="yes"/>
      <point x="93.0" y="132.2"/>
      <point x="93.0" y="75.2"/>
      <point x="93.0" y="19.4" type="curve" smooth="yes"/>
      <point x="93.0" y="13.8"/>
      <point x="95.0" y="10.0"/>
      <point x="98.6" y="6.4" type="curve" smooth="yes"/>
      <point x="110.2" y="-5.2"/>
      <point x="129.6" y="-10.0"/>
      <point x="152.0" y="-10.0" type="curve" smooth="yes"/>
    </contour>
    <contour>
      <point x="379.8" y="528.0" type="curve" smooth="yes"/>
      <point x="297.6" y="528.0"/>
      <point x="213.4" y="475.0"/>
      <point x="161.0" y="406.0" type="curve" smooth="yes"/>
      <point x="142.2" y="382.2"/>
      <point x="135.8" y="359.8"/>
      <point x="137.4" y="326.8" type="curve"/>
      <point x="237.2" y="433.6"/>
      <point x="295.0" y="458.0"/>
      <point x="377.0" y="458.0" type="curve" smooth="yes"/>
      <point x="413.8" y="458.0"/>
      <point x="451.8" y="436.2"/>
      <point x="480.2" y="389.6" type="curve"/>
      <point x="498.0" y="394.4"/>
      <point x="507.0" y="405.0"/>
      <point x="507.0" y="416.0" type="curve" smooth="yes"/>
      <point x="507.0" y="461.8"/>
      <point x="440.8" y="528.0"/>
    </contour>
    <contour>
      <point x="507.0" y="-10.0" type="line"/>
      <point x="507.0" y="149.0503597122302"/>
      <point x="507.0" y="256.9496402877698"/>
      <point x="507.0" y="416.0" type="curve" smooth="yes"/>
      <point x="507.0" y="421.6"/>
      <point x="505.0" y="425.4"/>
      <point x="501.4" y="429.0" type="curve" smooth="yes"/>
      <point x="489.8" y="440.6"/>
      <point x="470.4" y="445.4"/>
      <point x="448.0" y="445.4" type="curve" smooth="yes"/>
      <point x="435.0" y="445.4" type="line"/>
      <point x="435.0" y="343.2"/>
      <point x="435.0" y="290.4"/>
      <point x="435.0" y="188.0" type="curve" smooth="yes"/>
      <point x="435.0" y="131.93333333333334"/>
      <point x="435.0" y="75.46666666666667"/>
      <point x="435.0" y="19.4" type="curve" smooth="yes"/>
      <point x="435.0" y="13.8"/>
      <point x="437.0" y="10.0"/>
      <point x="440.6" y="6.4" type="curve" smooth="yes"/>
      <point x="452.2" y="-5.2"/>
      <point x="471.6" y="-10.0"/>
      <point x="494.0" y="-10.0" type="curve" smooth="yes"/>
    </contour>
  </outline>
</glyph>
<glyph name="i" format="2">
  <advance width="300.0"/>
  <unicode hex="0069"/>
  <guideline y="0.0" identifier="MeGjFnIIV6"/>
  <guideline x="0.0" identifier="GOd0KuzhgB"/>
  <guideline x="50.0" identifier="HsBTfQ86Ci"/>
  <guideline x="100.0" identifier="M24McFw3p1"/>
  <guideline x="150.0" identifier="AwXYpQzJ6m"/>
  <guideline x="200.0" identifier="tJyAZbCWVJ"/>
  <guideline x="250.0" identifier="SvMhguasMP"/>
  <guideline x="300.0" identifier="g4qbs6NHyr"/>
  <guideline y="-250.0" identifier="XPlBunQhqZ"/>
  <guideline y="-200.0" identifier="hFmHw4nHPS"/>
  <guideline y="-150.0" identifier="D9WtuVs5Ex"/>
  <guideline y="-100.0" identifier="7CcwqiBYAT"/>
  <guideline y="-50.0" identifier="FPIORwy7au"/>
  <guideline y="50.0" identifier="AeyNZ77NMX"/>
  <guideline y="100.0" identifier="8bdITXBMYI"/>
  <guideline y="150.0" identifier="c9M6davzUK"/>
  <guideline y="200.0" identifier="GscesOtgzc"/>
  <guideline y="250.0" identifier="ApKPpEtVzB"/>
  <guideline y="300.0" identifier="lAKBXnpEtB"/>
  <guideline y="350.0" identifier="eokXWTDSu3"/>
  <guideline y="400.0" identifier="szPlmhI2TQ"/>
  <guideline y="450.0" identifier="8uReE326Cl"/>
  <guideline y="500.0" identifier="of8Z8N4gii"/>
  <guideline y="550.0" identifier="eZZMPFek6p"/>
  <guideline y="600.0" identifier="WnMEL2Kc2z"/>
  <guideline y="650.0" identifier="ESrDj4cdhh"/>
  <guideline y="700.0" identifier="MNZ7BO71IH"/>
  <outline>
    <contour>
      <point x="200.0" y="609.0" type="line"/>
      <point x="200.0" y="628.8"/>
      <point x="200.0" y="657.0"/>
      <point x="200.0" y="676.8" type="curve" smooth="yes"/>
      <point x="200.0" y="684.0"/>
      <point x="198.8" y="687.0"/>
      <point x="192.0" y="693.8" type="curve" smooth="yes"/>
      <point x="178.8" y="707.0"/>
      <point x="164.8" y="713.8"/>
      <point x="136.8" y="713.8" type="curve"/>
      <point x="100.0" y="713.8" type="line"/>
      <point x="100.0" y="693.2"/>
      <point x="100.0" y="666.8"/>
      <point x="100.0" y="646.0" type="curve" smooth="yes"/>
      <point x="100.0" y="638.8"/>
      <point x="101.2" y="635.8"/>
      <point x="108.0" y="629.0" type="curve" smooth="yes"/>
      <point x="121.0" y="616.0"/>
      <point x="136.0" y="609.0"/>
      <point x="163.2" y="609.0" type="curve"/>
    </contour>
    <contour>
      <point x="186.0" y="-10.0" type="line"/>
      <point x="186.0" y="153.2"/>
      <point x="186.0" y="327.4"/>
      <point x="186.0" y="490.6" type="curve" smooth="yes"/>
      <point x="186.0" y="496.2"/>
      <point x="184.0" y="500.0"/>
      <point x="180.4" y="503.6" type="curve" smooth="yes"/>
      <point x="171.2" y="512.8"/>
      <point x="149.4" y="518.0"/>
      <point x="127.0" y="518.0" type="curve" smooth="yes"/>
      <point x="114.0" y="518.0" type="line"/>
      <point x="114.0" y="410.2"/>
      <point x="114.0" y="293.8"/>
      <point x="114.0" y="186.0" type="curve" smooth="yes"/>
      <point x="114.0" y="130.8"/>
      <point x="114.0" y="74.6"/>
      <point x="114.0" y="19.4" type="curve" smooth="yes"/>
      <point x="114.0" y="13.8"/>
      <point x="116.0" y="10.0"/>
      <point x="119.6" y="6.4" type="curve" smooth="yes"/>
      <point x="131.2" y="-5.2"/>
      <point x="150.6" y="-10.0"/>
      <point x="173.0" y="-10.0" type="curve" smooth="yes"/>
    </contour>
  </outline>
</glyph>
<glyph name="j" format="2">
  <advance width="300.0"/>
  <unicode hex="006A"/>
  <guideline y="0.0" identifier="Gf0BLhH1Gp"/>
  <guideline x="0.0" identifier="jAs656jmL7"/>
  <guideline x="50.0" identifier="R0YQBRbOYy"/>
  <guideline x="100.0" identifier="AWCsFaaIeR"/>
  <guideline x="150.0" identifier="GB7jSGv1BY"/>
  <guideline x="200.0" identifier="Gaot9tGUYM"/>
  <guideline x="250.0" identifier="NJyg7xfrTT"/>
  <guideline x="300.0" identifier="OsUZw1OWIV"/>
  <guideline y="-250.0" identifier="ZOpDRYYFry"/>
  <guideline y="-200.0" identifier="eZ2uxNI2f5"/>
  <guideline y="-150.0" identifier="alYRtCNk6j"/>
  <guideline y="-100.0" identifier="N0wFEmmvmE"/>
  <guideline y="-50.0" identifier="HybNVKZe1b"/>
  <guideline y="50.0" identifier="Cbr1diAA0Z"/>
  <guideline y="100.0" identifier="KMtpWtOBoC"/>
  <guideline y="150.0" identifier="9Dd4fvgoz9"/>
  <guideline y="200.0" identifier="rG0Xxb5CP1"/>
  <guideline y="250.0" identifier="R5OzilDhW0"/>
  <guideline y="300.0" identifier="oN5gjervbN"/>
  <guideline y="350.0" identifier="DglLgtlVY8"/>
  <guideline y="400.0" identifier="gJ1Q7YjEqr"/>
  <guideline y="450.0" identifier="RDHTxWfqoJ"/>
  <guideline y="500.0" identifier="lpLHnqr7jX"/>
  <guideline y="550.0" identifier="oLsvOyGBym"/>
  <guideline y="600.0" identifier="1VgzhD3IDm"/>
  <guideline y="650.0" identifier="r8FtNGWXDp"/>
  <guideline y="700.0" identifier="lfnZAUIDRO"/>
  <outline>
    <contour>
      <point x="200.0" y="609.0" type="line"/>
      <point x="200.0" y="628.8"/>
      <point x="200.0" y="657.0"/>
      <point x="200.0" y="676.8" type="curve" smooth="yes"/>
      <point x="200.0" y="684.0"/>
      <point x="198.8" y="687.0"/>
      <point x="192.0" y="693.8" type="curve" smooth="yes"/>
      <point x="178.8" y="707.0"/>
      <point x="164.8" y="713.8"/>
      <point x="136.8" y="713.8" type="curve"/>
      <point x="100.0" y="713.8" type="line"/>
      <point x="100.0" y="693.2"/>
      <point x="100.0" y="666.8"/>
      <point x="100.0" y="646.0" type="curve" smooth="yes"/>
      <point x="100.0" y="638.8"/>
      <point x="101.2" y="635.8"/>
      <point x="108.0" y="629.0" type="curve" smooth="yes"/>
      <point x="121.0" y="616.0"/>
      <point x="136.0" y="609.0"/>
      <point x="163.2" y="609.0" type="curve"/>
    </contour>
    <contour>
      <point x="36.2" y="-250.0" type="line"/>
      <point x="104.2" y="-250.0"/>
      <point x="186.0" y="-198.6"/>
      <point x="186.0" y="-4.0" type="curve" smooth="yes"/>
      <point x="186.0" y="157.4"/>
      <point x="186.0" y="329.2"/>
      <point x="186.0" y="490.6" type="curve" smooth="yes"/>
      <point x="186.0" y="496.2"/>
      <point x="184.0" y="500.0"/>
      <point x="180.4" y="503.6" type="curve" smooth="yes"/>
      <point x="171.2" y="512.8"/>
      <point x="149.4" y="518.0"/>
      <point x="127.0" y="518.0" type="curve" smooth="yes"/>
      <point x="114.0" y="518.0" type="line"/>
      <point x="114.0" y="417.6"/>
      <point x="114.0" y="266.0"/>
      <point x="114.0" y="208.0" type="curve"/>
      <point x="114.0" y="137.4"/>
      <point x="114.0" y="66.4"/>
      <point x="114.0" y="-4.0" type="curve" smooth="yes"/>
      <point x="114.0" y="-127.0"/>
      <point x="89.6" y="-180.0"/>
      <point x="7.2" y="-180.0" type="curve"/>
      <point x="-2.0" y="-180.0" type="line"/>
      <point x="-2.0" y="-184.4" type="line" smooth="yes"/>
      <point x="-2.0" y="-225.2"/>
      <point x="8.4" y="-250.0"/>
      <point x="25.200000000000003" y="-250.0" type="curve" smooth="yes"/>
    </contour>
  </outline>
</glyph>
<glyph name="k" format="2">
  <advance width="600.0"/>
  <unicode hex="006B"/>
  <outline>
    <contour>
      <point x="163.0" y="-10.0" type="line"/>
      <point x="163.0" y="154.2"/>
      <point x="163.0" y="570.4"/>
      <point x="163.0" y="724.6" type="curve" smooth="yes"/>
      <point x="163.0" y="730.2"/>
      <point x="161.0" y="734.0"/>
      <point x="157.4" y="737.6" type="curve" smooth="yes"/>
      <point x="148.2" y="746.8"/>
      <point x="128.4" y="752.0"/>
      <point x="106.0" y="752.0" type="curve" smooth="yes"/>
      <point x="93.0" y="752.0" type="line"/>
      <point x="93.0" y="643.8"/>
      <point x="93.0" y="296.2"/>
      <point x="93.0" y="188.0" type="curve" smooth="yes"/>
      <point x="93.0" y="132.2"/>
      <point x="93.0" y="75.2"/>
      <point x="93.0" y="19.4" type="curve" smooth="yes"/>
      <point x="93.0" y="13.8"/>
      <point x="95.0" y="10.0"/>
      <point x="98.6" y="6.4" type="curve" smooth="yes"/>
      <point x="110.2" y="-5.2"/>
      <point x="127.6" y="-10.0"/>
      <point x="150.0" y="-10.0" type="curve" smooth="yes"/>
    </contour>
    <contour>
      <point x="295.2" y="265.2" type="line"/>
      <point x="263.0" y="239.6"/>
      <point x="251.2" y="214.8"/>
      <point x="260.0" y="204.0" type="curve" smooth="yes"/>
      <point x="383.6" y="53.2" type="line" smooth="yes"/>
      <point x="428.8" y="-1.8"/>
      <point x="459.6" y="-20.0"/>
      <point x="502.0" y="-20.0" type="curve" smooth="yes"/>
      <point x="527.8" y="-20.0"/>
      <point x="550.0" y="-5.2"/>
      <point x="550.0" y="14.0" type="curve" smooth="yes"/>
      <point x="550.0" y="70.0" type="line"/>
      <point x="537.0" y="70.0" type="line"/>
      <point x="529.0" y="61.2"/>
      <point x="512.8" y="54.0"/>
      <point x="500.0" y="54.0" type="curve" smooth="yes"/>
      <point x="475.6" y="54.0"/>
      <point x="456.2" y="66.4"/>
      <point x="433.2" y="95.0" type="curve" smooth="yes"/>
    </contour>
    <contour>
      <point x="467.0" y="520.0" type="curve" smooth="yes"/>
      <point x="454.2" y="520.0" type="line"/>
      <point x="378.0" y="346.2"/>
      <point x="266.8" y="251.6"/>
      <point x="123.0" y="205.8" type="curve"/>
      <point x="123.0" y="171.6"/>
      <point x="134.0" y="155.4"/>
      <point x="149.2" y="158.6" type="curve" smooth="yes"/>
      <point x="296.6" y="192.6"/>
      <point x="423.4" y="288.8"/>
      <point x="511.2" y="466.8" type="curve" smooth="yes"/>
      <point x="517.2" y="479.0"/>
      <point x="519.8" y="485.8"/>
      <point x="519.8" y="490.4" type="curve" smooth="yes"/>
      <point x="519.8" y="504.26666666666665"/>
      <point x="502.064" y="520.0"/>
    </contour>
  </outline>
</glyph>
<glyph name="l" format="2">
  <advance width="300.0"/>
  <unicode hex="006C"/>
  <outline>
    <contour>
      <point x="42.0" y="750.0" type="curve"/>
      <point x="42.0" y="737.0" type="line" smooth="yes"/>
      <point x="42.0" y="710.8"/>
      <point x="45.8" y="695.2"/>
      <point x="55.4" y="685.6" type="curve" smooth="yes"/>
      <point x="59.0" y="682.0"/>
      <point x="62.8" y="680.0"/>
      <point x="68.4" y="680.0" type="curve"/>
      <point x="115.0" y="680.0"/>
      <point x="111.4" y="680.0"/>
      <point x="157.8" y="680.0" type="curve"/>
      <point x="157.8" y="693.0" type="line" smooth="yes"/>
      <point x="157.8" y="710.8"/>
      <point x="150.6" y="731.2"/>
      <point x="137.4" y="744.4" type="curve" smooth="yes"/>
      <point x="133.8" y="748.0"/>
      <point x="130.0" y="750.0"/>
      <point x="124.4" y="750.0" type="curve" smooth="yes"/>
      <point x="106.4" y="750.0"/>
      <point x="60.0" y="750.0"/>
    </contour>
    <contour>
      <point x="186.0" y="-10.0" type="line"/>
      <point x="186.0" y="154.2"/>
      <point x="186.0" y="568.4"/>
      <point x="186.0" y="722.6" type="curve" smooth="yes"/>
      <point x="186.0" y="728.2"/>
      <point x="184.0" y="732.0"/>
      <point x="180.4" y="735.6" type="curve" smooth="yes"/>
      <point x="171.2" y="744.8"/>
      <point x="149.4" y="750.0"/>
      <point x="127.0" y="750.0" type="curve" smooth="yes"/>
      <point x="114.0" y="750.0" type="line"/>
      <point x="114.0" y="641.8"/>
      <point x="114.0" y="296.2"/>
      <point x="114.0" y="188.0" type="curve" smooth="yes"/>
      <point x="114.0" y="132.2"/>
      <point x="114.0" y="75.2"/>
      <point x="114.0" y="19.4" type="curve" smooth="yes"/>
      <point x="114.0" y="13.8"/>
      <point x="116.0" y="10.0"/>
      <point x="119.6" y="6.4" type="curve" smooth="yes"/>
      <point x="131.2" y="-5.2"/>
      <point x="150.6" y="-10.0"/>
      <point x="173.0" y="-10.0" type="curve" smooth="yes"/>
    </contour>
  </outline>
</glyph>
<glyph name="m" format="2">
  <advance width="900.0"/>
  <unicode hex="006D"/>
  <outline>
    <contour>
      <point x="165.0" y="-10.0" type="line"/>
      <point x="165.0" y="157.8"/>
      <point x="165.0" y="325.6"/>
      <point x="165.0" y="492.6" type="curve" smooth="yes"/>
      <point x="165.0" y="498.2"/>
      <point x="163.0" y="502.0"/>
      <point x="159.4" y="505.6" type="curve" smooth="yes"/>
      <point x="150.2" y="514.8"/>
      <point x="128.4" y="520.0"/>
      <point x="106.0" y="520.0" type="curve" smooth="yes"/>
      <point x="93.0" y="520.0" type="line"/>
      <point x="93.0" y="409.8"/>
      <point x="93.0" y="298.2"/>
      <point x="93.0" y="188.0" type="curve" smooth="yes"/>
      <point x="93.0" y="132.2"/>
      <point x="93.0" y="75.2"/>
      <point x="93.0" y="19.4" type="curve" smooth="yes"/>
      <point x="93.0" y="13.8"/>
      <point x="95.0" y="10.0"/>
      <point x="98.6" y="6.4" type="curve" smooth="yes"/>
      <point x="110.2" y="-5.2"/>
      <point x="129.6" y="-10.0"/>
      <point x="152.0" y="-10.0" type="curve" smooth="yes"/>
    </contour>
    <contour>
      <point x="363.8" y="528.0" type="curve" smooth="yes"/>
      <point x="281.6" y="528.0"/>
      <point x="213.4" y="475.0"/>
      <point x="161.0" y="406.0" type="curve" smooth="yes"/>
      <point x="142.2" y="382.2"/>
      <point x="135.8" y="359.8"/>
      <point x="137.4" y="326.8" type="curve"/>
      <point x="235.2" y="427.6"/>
      <point x="279.0" y="456.0"/>
      <point x="361.0" y="456.0" type="curve" smooth="yes"/>
      <point x="397.8" y="456.0"/>
      <point x="431.8" y="434.2"/>
      <point x="444.2" y="371.6" type="curve"/>
      <point x="478.0" y="392.4"/>
      <point x="487.0" y="405.0"/>
      <point x="487.0" y="416.0" type="curve" smooth="yes"/>
      <point x="487.0" y="461.8"/>
      <point x="424.8" y="528.0"/>
    </contour>
    <contour>
      <point x="487.0" y="-10.0" type="line"/>
      <point x="487.0" y="149.2"/>
      <point x="487.0" y="256.8"/>
      <point x="487.0" y="416.0" type="curve" smooth="yes"/>
      <point x="487.0" y="421.6"/>
      <point x="485.0" y="425.4"/>
      <point x="481.4" y="429.0" type="curve" smooth="yes"/>
      <point x="469.8" y="440.6"/>
      <point x="450.4" y="445.4"/>
      <point x="428.0" y="445.4" type="curve" smooth="yes"/>
      <point x="415.0" y="445.4" type="line"/>
      <point x="415.0" y="343.2"/>
      <point x="415.0" y="290.4"/>
      <point x="415.0" y="188.0" type="curve" smooth="yes"/>
      <point x="415.0" y="132.2"/>
      <point x="415.0" y="75.2"/>
      <point x="415.0" y="19.4" type="curve" smooth="yes"/>
      <point x="415.0" y="13.8"/>
      <point x="417.0" y="10.0"/>
      <point x="420.6" y="6.4" type="curve" smooth="yes"/>
      <point x="432.2" y="-5.2"/>
      <point x="451.6" y="-10.0"/>
      <point x="474.0" y="-10.0" type="curve" smooth="yes"/>
    </contour>
    <contour>
      <point x="683.8" y="528.0" type="curve" smooth="yes"/>
      <point x="601.6" y="528.0"/>
      <point x="533.4" y="475.0"/>
      <point x="481.0" y="406.0" type="curve" smooth="yes"/>
      <point x="462.2" y="382.2"/>
      <point x="455.8" y="359.8"/>
      <point x="457.4" y="326.8" type="curve"/>
      <point x="555.2" y="427.6"/>
      <point x="599.0" y="456.0"/>
      <point x="681.0" y="456.0" type="curve" smooth="yes"/>
      <point x="717.8" y="456.0"/>
      <point x="751.8" y="434.2"/>
      <point x="764.2" y="371.6" type="curve"/>
      <point x="798.0" y="392.4"/>
      <point x="807.0" y="405.0"/>
      <point x="807.0" y="416.0" type="curve" smooth="yes"/>
      <point x="807.0" y="461.8"/>
      <point x="744.8" y="528.0"/>
    </contour>
    <contour>
      <point x="807.0" y="-10.0" type="line"/>
      <point x="807.0" y="149.2"/>
      <point x="807.0" y="256.8"/>
      <point x="807.0" y="416.0" type="curve" smooth="yes"/>
      <point x="807.0" y="421.6"/>
      <point x="805.0" y="425.4"/>
      <point x="801.4" y="429.0" type="curve" smooth="yes"/>
      <point x="789.8" y="440.6"/>
      <point x="770.4" y="445.4"/>
      <point x="748.0" y="445.4" type="curve" smooth="yes"/>
      <point x="735.0" y="445.4" type="line"/>
      <point x="735.0" y="343.2"/>
      <point x="735.0" y="290.4"/>
      <point x="735.0" y="188.0" type="curve" smooth="yes"/>
      <point x="735.0" y="132.2"/>
      <point x="735.0" y="75.2"/>
      <point x="735.0" y="19.4" type="curve" smooth="yes"/>
      <point x="735.0" y="13.8"/>
      <point x="737.0" y="10.0"/>
      <point x="740.6" y="6.4" type="curve" smooth="yes"/>
      <point x="752.2" y="-5.2"/>
      <point x="771.6" y="-10.0"/>
      <point x="794.0" y="-10.0" type="curve" smooth="yes"/>
    </contour>
  </outline>
</glyph>
<glyph name="n" format="2">
  <advance width="600.0"/>
  <unicode hex="006E"/>
  <outline>
    <contour>
      <point x="165.0" y="-10.0" type="line"/>
      <point x="165.0" y="157.53333333333333"/>
      <point x="165.0" y="325.3388090349076"/>
      <point x="165.0" y="492.6" type="curve" smooth="yes"/>
      <point x="165.0" y="498.2"/>
      <point x="163.0" y="502.0"/>
      <point x="159.4" y="505.6" type="curve" smooth="yes"/>
      <point x="150.2" y="514.8"/>
      <point x="128.4" y="520.0"/>
      <point x="106.0" y="520.0" type="curve" smooth="yes"/>
      <point x="93.0" y="520.0" type="line"/>
      <point x="93.0" y="409.53333333333336"/>
      <point x="93.0" y="298.46666666666664"/>
      <point x="93.0" y="188.0" type="curve" smooth="yes"/>
      <point x="93.0" y="131.93333333333334"/>
      <point x="93.0" y="75.46666666666667"/>
      <point x="93.0" y="19.4" type="curve" smooth="yes"/>
      <point x="93.0" y="13.8"/>
      <point x="95.0" y="10.0"/>
      <point x="98.6" y="6.4" type="curve" smooth="yes"/>
      <point x="110.2" y="-5.2"/>
      <point x="129.6" y="-10.0"/>
      <point x="152.0" y="-10.0" type="curve" smooth="yes"/>
    </contour>
    <contour>
      <point x="379.8" y="528.0" type="curve" smooth="yes"/>
      <point x="297.6" y="528.0"/>
      <point x="213.4" y="475.0"/>
      <point x="161.0" y="406.0" type="curve" smooth="yes"/>
      <point x="142.2" y="382.2"/>
      <point x="135.8" y="359.8"/>
      <point x="137.4" y="326.8" type="curve"/>
      <point x="235.2" y="427.6"/>
      <point x="295.0" y="456.0"/>
      <point x="377.0" y="456.0" type="curve" smooth="yes"/>
      <point x="413.8" y="456.0"/>
      <point x="451.8" y="434.2"/>
      <point x="480.2" y="387.6" type="curve"/>
      <point x="498.0" y="392.4"/>
      <point x="507.0" y="405.0"/>
      <point x="507.0" y="416.0" type="curve" smooth="yes"/>
      <point x="507.0" y="461.8"/>
      <point x="440.8" y="528.0"/>
    </contour>
    <contour>
      <point x="507.0" y="-10.0" type="line"/>
      <point x="507.0" y="149.0503597122302"/>
      <point x="507.0" y="256.9496402877698"/>
      <point x="507.0" y="416.0" type="curve" smooth="yes"/>
      <point x="507.0" y="421.6"/>
      <point x="505.0" y="425.4"/>
      <point x="501.4" y="429.0" type="curve" smooth="yes"/>
      <point x="489.8" y="440.6"/>
      <point x="470.4" y="445.4"/>
      <point x="448.0" y="445.4" type="curve" smooth="yes"/>
      <point x="435.0" y="445.4" type="line"/>
      <point x="435.0" y="343.2"/>
      <point x="435.0" y="290.4"/>
      <point x="435.0" y="188.0" type="curve" smooth="yes"/>
      <point x="435.0" y="131.93333333333334"/>
      <point x="435.0" y="75.46666666666667"/>
      <point x="435.0" y="19.4" type="curve" smooth="yes"/>
      <point x="435.0" y="13.8"/>
      <point x="437.0" y="10.0"/>
      <point x="440.6" y="6.4" type="curve" smooth="yes"/>
      <point x="452.2" y="-5.2"/>
      <point x="471.6" y="-10.0"/>
      <point x="494.0" y="-10.0" type="curve" smooth="yes"/>
    </contour>
  </outline>
</glyph>
<glyph name="o" format="2">
  <advance width="600.0"/>
  <unicode hex="006F"/>
  <outline>
    <contour>
      <point x="298.0" y="530.0" type="curve" smooth="yes"/>
      <point x="165.97511111111112" y="530.0"/>
      <point x="62.0" y="421.60408163265305"/>
      <point x="62.0" y="272.0" type="curve" smooth="yes"/>
      <point x="62.0" y="224.0" type="line" smooth="yes"/>
      <point x="62.0" y="85.4"/>
      <point x="158.1500622784325" y="-20.0"/>
      <point x="287.4" y="-20.0" type="curve" smooth="yes"/>
      <point x="302.0" y="-20.0" type="line" smooth="yes"/>
      <point x="321.8" y="-20.0"/>
      <point x="329.4" y="2.0"/>
      <point x="329.4" y="22.8" type="curve"/>
      <point x="166.10319710741246" y="39.606843721998494"/>
      <point x="132.0" y="150.6"/>
      <point x="132.0" y="222.6" type="curve" smooth="yes"/>
      <point x="132.0" y="266.0" type="line" smooth="yes"/>
      <point x="132.0" y="360.8"/>
      <point x="193.5391304347826" y="460.2"/>
      <point x="312.0" y="460.2" type="curve" smooth="yes"/>
      <point x="360.4" y="460.2"/>
      <point x="396.4" y="450.6"/>
      <point x="433.0" y="434.0" type="curve"/>
      <point x="440.8" y="437.0"/>
      <point x="443.6" y="442.0"/>
      <point x="443.6" y="452.4" type="curve"/>
      <point x="443.6" y="486.2"/>
      <point x="377.2955223880597" y="530.0"/>
    </contour>
    <contour>
      <point x="302.0" y="-20.0" type="curve" smooth="yes"/>
      <point x="434.4" y="-20.0"/>
      <point x="538.0" y="88.39591836734694"/>
      <point x="538.0" y="238.0" type="curve" smooth="yes"/>
      <point x="538.0" y="286.0" type="line" smooth="yes"/>
      <point x="538.0" y="424.6"/>
      <point x="442.0" y="530.0"/>
      <point x="312.6" y="530.0" type="curve" smooth="yes"/>
      <point x="298.0" y="530.0" type="line" smooth="yes"/>
      <point x="278.2" y="530.0"/>
      <point x="270.6" y="508.0"/>
      <point x="270.6" y="487.2" type="curve"/>
      <point x="433.6" y="470.4"/>
      <point x="468.0" y="359.4"/>
      <point x="468.0" y="287.4" type="curve" smooth="yes"/>
      <point x="468.0" y="244.0" type="line" smooth="yes"/>
      <point x="468.0" y="149.2"/>
      <point x="406.8" y="49.8"/>
      <point x="288.0" y="49.8" type="curve" smooth="yes"/>
      <point x="239.6" y="49.8"/>
      <point x="203.6" y="59.400000000000006"/>
      <point x="167.0" y="76.0" type="curve"/>
      <point x="159.2" y="73.0"/>
      <point x="156.4" y="68.0"/>
      <point x="156.4" y="57.6" type="curve"/>
      <point x="156.4" y="23.8"/>
      <point x="222.6" y="-20.0"/>
    </contour>
  </outline>
</glyph>
<glyph name="p" format="2">
  <advance width="600.0"/>
  <unicode hex="0070"/>
  <outline>
    <contour>
      <point x="165.0" y="-245.0" type="line"/>
      <point x="165.0" y="-57.405612998522905"/>
      <point x="165.0" y="297.0769416698516"/>
      <point x="165.0" y="484.6" type="curve" smooth="yes"/>
      <point x="165.0" y="490.2"/>
      <point x="163.0" y="494.0"/>
      <point x="159.4" y="497.6" type="curve" smooth="yes"/>
      <point x="150.2" y="506.8"/>
      <point x="128.4" y="512.0"/>
      <point x="106.0" y="512.0" type="curve" smooth="yes"/>
      <point x="93.0" y="512.0" type="line"/>
      <point x="93.0" y="404.2"/>
      <point x="93.0" y="295.8"/>
      <point x="93.0" y="188.0" type="curve" smooth="yes"/>
      <point x="93.0" y="112.72880134518375"/>
      <point x="93.0" y="-140.23314917127072"/>
      <point x="93.0" y="-215.6" type="curve" smooth="yes"/>
      <point x="93.0" y="-221.2"/>
      <point x="95.0" y="-225.0"/>
      <point x="98.6" y="-228.6" type="curve" smooth="yes"/>
      <point x="110.2" y="-240.2"/>
      <point x="129.6" y="-245.0"/>
      <point x="152.0" y="-245.0" type="curve" smooth="yes"/>
    </contour>
    <contour>
      <point x="373.8" y="528.0" type="curve" smooth="yes"/>
      <point x="293.226060296372" y="528.0"/>
      <point x="214.15068117041534" y="476.65657375073704"/>
      <point x="161.0" y="406.0" type="curve" smooth="yes"/>
      <point x="142.4" y="382.2"/>
      <point x="135.8" y="359.8"/>
      <point x="137.4" y="326.8" type="curve"/>
      <point x="234.0944889408133" y="426.51511663097176"/>
      <point x="291.18473244562074" y="456.0"/>
      <point x="371.0" y="456.0" type="curve" smooth="yes"/>
      <point x="435.0" y="456.0"/>
      <point x="483.0" y="397.4"/>
      <point x="496.2" y="307.2" type="curve"/>
      <point x="530.0" y="310.4"/>
      <point x="540.0" y="320.6"/>
      <point x="540.0" y="330.8" type="curve" smooth="yes"/>
      <point x="540.0" y="441.8"/>
      <point x="460.0" y="528.0"/>
    </contour>
    <contour>
      <point x="310.0" y="-20.0" type="curve" smooth="yes"/>
      <point x="464.3351162790698" y="-20.0"/>
      <point x="540.0" y="97.4"/>
      <point x="540.0" y="296.0" type="curve" smooth="yes"/>
      <point x="540.0" y="330.8" type="line" smooth="yes"/>
      <point x="540.0" y="379.4"/>
      <point x="499.6" y="451.4"/>
      <point x="464.8" y="451.4" type="curve"/>
      <point x="447.8" y="451.4"/>
      <point x="436.2" y="448.0"/>
      <point x="434.6" y="437.8" type="curve"/>
      <point x="455.8" y="398.2"/>
      <point x="467.0" y="369.6"/>
      <point x="467.0" y="318.8" type="curve" smooth="yes"/>
      <point x="467.0" y="296.0" type="line" smooth="yes"/>
      <point x="467.0" y="147.6"/>
      <point x="410.5878787878788" y="49.0"/>
      <point x="295.0" y="49.0" type="curve" smooth="yes"/>
      <point x="240.8" y="49.0"/>
      <point x="205.2" y="58.6"/>
      <point x="156.0" y="79.4" type="curve"/>
      <point x="150.4" y="78.6"/>
      <point x="147.8" y="74.0"/>
      <point x="147.8" y="67.6" type="curve"/>
      <point x="147.8" y="34.46299212598425"/>
      <point x="231.6" y="-20.0"/>
    </contour>
  </outline>
</glyph>
<glyph name="q" format="2">
  <advance width="600.0"/>
  <unicode hex="0071"/>
  <outline>
    <contour>
      <point x="507.0" y="-245.0" type="line"/>
      <point x="507.0" y="-55.82590975254729"/>
      <point x="507.0" y="303.49723842387596"/>
      <point x="507.0" y="492.6" type="curve" smooth="yes"/>
      <point x="507.0" y="498.2"/>
      <point x="505.0" y="502.0"/>
      <point x="501.4" y="505.6" type="curve" smooth="yes"/>
      <point x="492.2" y="514.8"/>
      <point x="470.4" y="520.0"/>
      <point x="448.0" y="520.0" type="curve" smooth="yes"/>
      <point x="435.0" y="520.0" type="line"/>
      <point x="435.0" y="384.2"/>
      <point x="435.0" y="247.8"/>
      <point x="435.0" y="112.0" type="curve" smooth="yes"/>
      <point x="435.0" y="45.09135802469136"/>
      <point x="435.0" y="-148.96825396825398"/>
      <point x="435.0" y="-215.6" type="curve" smooth="yes"/>
      <point x="435.0" y="-221.2"/>
      <point x="437.0" y="-225.0"/>
      <point x="440.6" y="-228.6" type="curve" smooth="yes"/>
      <point x="452.2" y="-240.2"/>
      <point x="471.6" y="-245.0"/>
      <point x="494.0" y="-245.0" type="curve" smooth="yes"/>
    </contour>
    <contour>
      <point x="290.0" y="530.0" type="curve" smooth="yes"/>
      <point x="151.86" y="530.0"/>
      <point x="68.0" y="403.6"/>
      <point x="68.0" y="212.0" type="curve" smooth="yes"/>
      <point x="68.0" y="183.2" type="line" smooth="yes"/>
      <point x="68.0" y="137.6"/>
      <point x="99.6" y="70.4"/>
      <point x="133.0" y="70.4" type="curve"/>
      <point x="146.2" y="70.4"/>
      <point x="155.0" y="73.4"/>
      <point x="156.6" y="82.6" type="curve"/>
      <point x="147.6" y="111.6"/>
      <point x="141.0" y="146.2"/>
      <point x="141.0" y="199.2" type="curve" smooth="yes"/>
      <point x="141.0" y="220.0" type="line" smooth="yes"/>
      <point x="141.0" y="357.8"/>
      <point x="195.62" y="461.0"/>
      <point x="292.4" y="461.0" type="curve" smooth="yes"/>
      <point x="359.4" y="461.0"/>
      <point x="391.6" y="438.6"/>
      <point x="451.4" y="374.6" type="curve"/>
      <point x="458.4" y="375.6"/>
      <point x="460.6" y="385.8"/>
      <point x="458.2" y="394.0" type="curve"/>
      <point x="451.94905339293024" y="445.11440895471424"/>
      <point x="373.53" y="530.0"/>
    </contour>
    <contour>
      <point x="226.2" y="-18.0" type="curve" smooth="yes"/>
      <point x="305.7213081246806" y="-18.0"/>
      <point x="389.58890854898806" y="30.75678593687757"/>
      <point x="439.0" y="96.0" type="curve" smooth="yes"/>
      <point x="457.8" y="119.8"/>
      <point x="464.2" y="142.2"/>
      <point x="462.6" y="175.2" type="curve"/>
      <point x="369.08886197916996" y="78.8151431372574"/>
      <point x="308.81526755437926" y="54.0"/>
      <point x="229.0" y="54.0" type="curve" smooth="yes"/>
      <point x="156.6" y="54.0"/>
      <point x="124.6" y="132.0"/>
      <point x="106.0" y="226.0" type="curve"/>
      <point x="76.2" y="222.8"/>
      <point x="68.0" y="203.0"/>
      <point x="68.0" y="183.2" type="curve" smooth="yes"/>
      <point x="68.0" y="81.4"/>
      <point x="124.0" y="-18.0"/>
    </contour>
  </outline>
</glyph>
<glyph name="r" format="2">
  <advance width="600.0"/>
  <unicode hex="0072"/>
  <outline>
    <contour>
      <point x="400.8" y="530.0" type="curve" smooth="yes"/>
      <point x="332.3285451197053" y="530.0"/>
      <point x="262.64951302651264" y="472.06742199354915"/>
      <point x="216.0" y="408.4" type="curve" smooth="yes"/>
      <point x="197.8" y="383.4"/>
      <point x="190.8" y="360.6"/>
      <point x="192.4" y="326.8" type="curve"/>
      <point x="283.99588007657854" y="421.8177037694747"/>
      <point x="327.11530021127237" y="456.0"/>
      <point x="398.0" y="456.0" type="curve" smooth="yes"/>
      <point x="434.53333333333336" y="456.0"/>
      <point x="472.5080506431329" y="434.11937888523636"/>
      <point x="501.2" y="387.6" type="curve"/>
      <point x="519.0" y="392.4"/>
      <point x="528.0" y="405.0"/>
      <point x="528.0" y="416.0" type="curve" smooth="yes"/>
      <point x="528.0" y="462.57027027027027"/>
      <point x="461.9194029850746" y="530.0"/>
    </contour>
    <contour>
      <point x="528.0" y="237.0" type="line"/>
      <point x="528.0" y="304.0"/>
      <point x="528.0" y="348.8"/>
      <point x="528.0" y="416.0" type="curve" smooth="yes"/>
      <point x="528.0" y="421.6"/>
      <point x="526.0" y="425.4"/>
      <point x="522.4" y="429.0" type="curve" smooth="yes"/>
      <point x="510.8" y="440.6"/>
      <point x="491.4" y="445.4"/>
      <point x="469.0" y="445.4" type="curve" smooth="yes"/>
      <point x="456.0" y="445.4" type="line"/>
      <point x="456.0" y="379.2"/>
      <point x="456.0" y="332.6"/>
      <point x="456.0" y="266.4" type="curve" smooth="yes"/>
      <point x="456.0" y="260.8"/>
      <point x="458.0" y="257.0"/>
      <point x="461.6" y="253.4" type="curve" smooth="yes"/>
      <point x="473.2" y="241.8"/>
      <point x="492.6" y="237.0"/>
      <point x="515.0" y="237.0" type="curve" smooth="yes"/>
    </contour>
    <contour>
      <point x="45.0" y="510.0" type="curve"/>
      <point x="45.0" y="497.0" type="line" smooth="yes"/>
      <point x="45.0" y="470.8"/>
      <point x="48.8" y="455.2"/>
      <point x="58.4" y="445.6" type="curve" smooth="yes"/>
      <point x="62.0" y="442.0"/>
      <point x="65.8" y="440.0"/>
      <point x="71.4" y="440.0" type="curve"/>
      <point x="132.7469879518072" y="440.0"/>
      <point x="123.90679611650486" y="440.0"/>
      <point x="184.8" y="440.0" type="curve"/>
      <point x="184.8" y="453.0" type="line" smooth="yes"/>
      <point x="184.8" y="470.8"/>
      <point x="177.6" y="491.2"/>
      <point x="164.4" y="504.4" type="curve" smooth="yes"/>
      <point x="160.8" y="508.0"/>
      <point x="157.0" y="510.0"/>
      <point x="151.4" y="510.0" type="curve" smooth="yes"/>
      <point x="128.49126213592234" y="510.0"/>
      <point x="68.20481927710844" y="510.0"/>
    </contour>
    <contour>
      <point x="220.0" y="-10.0" type="line"/>
      <point x="220.0" y="117.8"/>
      <point x="220.0" y="244.8"/>
      <point x="220.0" y="372.6" type="curve"/>
      <point x="220.0" y="456.4"/>
      <point x="198.8" y="510.0"/>
      <point x="163.0" y="510.0" type="curve" smooth="yes"/>
      <point x="148.0" y="510.0" type="line"/>
      <point x="148.0" y="412.0"/>
      <point x="148.0" y="281.6"/>
      <point x="148.0" y="195.6" type="curve" smooth="yes"/>
      <point x="148.0" y="136.4"/>
      <point x="148.0" y="77.0"/>
      <point x="148.0" y="19.4" type="curve"/>
      <point x="148.0" y="13.8"/>
      <point x="150.0" y="10.0"/>
      <point x="153.6" y="6.4" type="curve" smooth="yes"/>
      <point x="165.2" y="-5.2"/>
      <point x="184.6" y="-10.0"/>
      <point x="207.0" y="-10.0" type="curve" smooth="yes"/>
    </contour>
  </outline>
</glyph>
<glyph name="s" format="2">
  <advance width="600.0"/>
  <unicode hex="0073"/>
  <outline>
    <contour>
      <point x="375.8" y="530.0" type="curve" smooth="yes"/>
      <point x="246.0" y="530.0"/>
      <point x="95.0" y="446.2"/>
      <point x="95.0" y="353.6" type="curve" smooth="yes"/>
      <point x="95.0" y="337.2" type="line" smooth="yes"/>
      <point x="95.0" y="299.24"/>
      <point x="145.67118644067796" y="292.6"/>
      <point x="170.6" y="292.6" type="curve"/>
      <point x="165.88676230476455" y="310.5054996151592"/>
      <point x="165.0" y="328.2"/>
      <point x="165.0" y="342.0" type="curve" smooth="yes"/>
      <point x="165.0" y="406.8666666666667"/>
      <point x="280.4" y="460.0"/>
      <point x="373.2" y="460.0" type="curve" smooth="yes"/>
      <point x="430.0" y="460.0"/>
      <point x="465.0" y="452.6"/>
      <point x="491.2" y="438.0" type="curve"/>
      <point x="505.0" y="438.0" type="line"/>
      <point x="505.0" y="491.8" type="line"/>
      <point x="505.0" y="515.0"/>
      <point x="453.2" y="530.0"/>
    </contour>
    <contour>
      <point x="379.2" y="261.6" type="curve" smooth="yes"/>
      <point x="286.8" y="279.2" type="line" smooth="yes"/>
      <point x="180.26494574761958" y="299.24625666459934"/>
      <point x="165.0" y="318.0"/>
      <point x="165.0" y="342.0" type="curve" smooth="yes"/>
      <point x="165.0" y="352.8"/>
      <point x="165.8" y="371.6"/>
      <point x="175.2" y="391.0" type="curve"/>
      <point x="124.40960137328742" y="380.81418426629017"/>
      <point x="95.0" y="364.93885057471266"/>
      <point x="95.0" y="337.2" type="curve"/>
      <point x="95.0" y="282.578043697479"/>
      <point x="138.74196490718825" y="246.6803557843516"/>
      <point x="255.6" y="223.2" type="curve" smooth="yes"/>
      <point x="353.2" y="203.4" type="line" smooth="yes"/>
      <point x="444.1471523852339" y="185.15540481515612"/>
      <point x="476.96340342697687" y="154.8808136436127"/>
      <point x="489.0" y="105.8" type="curve"/>
      <point x="515.8236052305707" y="101.24810766438982"/>
      <point x="529.2" y="124.36870342771982"/>
      <point x="529.2" y="141.2" type="curve"/>
      <point x="529.2" y="195.99986885245903"/>
      <point x="483.1963480320721" y="241.7874272200625"/>
    </contour>
    <contour>
      <point x="306.0" y="-20.0" type="line" smooth="yes"/>
      <point x="441.2" y="-20.0"/>
      <point x="529.2" y="32.8"/>
      <point x="529.2" y="111.4" type="curve" smooth="yes"/>
      <point x="529.2" y="141.2" type="line"/>
      <point x="529.2" y="155.88888888888889"/>
      <point x="503.798194779582" y="160.29883950115988"/>
      <point x="483.8" y="150.0" type="curve"/>
      <point x="479.6" y="83.4"/>
      <point x="426.6" y="50.0"/>
      <point x="300.0" y="50.0" type="curve" smooth="yes"/>
      <point x="196.4" y="50.0"/>
      <point x="141.0" y="65.8"/>
      <point x="85.4" y="115.0" type="curve"/>
      <point x="71.6" y="115.0" type="line"/>
      <point x="71.6" y="99.4"/>
      <point x="71.6" y="82.0"/>
      <point x="71.6" y="64.8" type="curve"/>
      <point x="71.6" y="17.8"/>
      <point x="160.4" y="-20.0"/>
      <point x="289.8" y="-20.0" type="curve" smooth="yes"/>
    </contour>
  </outline>
</glyph>
<glyph name="t" format="2">
  <advance width="600.0"/>
  <unicode hex="0074"/>
  <outline>
    <contour>
      <point x="528.4" y="120.0" type="line"/>
      <point x="515.6" y="120.0" type="line"/>
      <point x="469.6" y="69.8"/>
      <point x="417.2" y="50.0"/>
      <point x="352.8" y="50.0" type="curve" smooth="yes"/>
      <point x="306.2" y="50.0"/>
      <point x="276.6" y="57.2"/>
      <point x="239.2" y="94.8" type="curve"/>
      <point x="222.0" y="89.6"/>
      <point x="219.8" y="47.2"/>
      <point x="246.0" y="21.0" type="curve" smooth="yes"/>
      <point x="275.6" y="-8.6"/>
      <point x="299.2" y="-20.0"/>
      <point x="335.0" y="-20.0" type="curve" smooth="yes"/>
      <point x="343.0" y="-20.0"/>
      <point x="358.2" y="-20.0"/>
      <point x="366.2" y="-20.0" type="curve" smooth="yes"/>
      <point x="423.8" y="-20.0"/>
      <point x="477.8" y="0.2"/>
      <point x="506.8" y="29.2" type="curve" smooth="yes"/>
      <point x="521.0" y="43.4"/>
      <point x="528.4" y="59.8"/>
      <point x="528.4" y="79.2" type="curve"/>
    </contour>
    <contour>
      <point x="45.0" y="510.0" type="curve"/>
      <point x="45.0" y="489.0" type="line" smooth="yes"/>
      <point x="45.0" y="470.6"/>
      <point x="49.4" y="455.6"/>
      <point x="59.4" y="445.6" type="curve" smooth="yes"/>
      <point x="63.0" y="442.0"/>
      <point x="66.8" y="440.0"/>
      <point x="72.4" y="440.0" type="curve"/>
      <point x="141.46666666666664" y="440.0"/>
      <point x="212.93333333333334" y="440.0"/>
      <point x="282.0" y="440.0" type="curve"/>
      <point x="361.5076923076923" y="440.0"/>
      <point x="450.4923076923077" y="440.0"/>
      <point x="530.0" y="440.0" type="curve"/>
      <point x="530.0" y="453.0" type="line" smooth="yes"/>
      <point x="530.0" y="475.4"/>
      <point x="525.2" y="492.8"/>
      <point x="513.6" y="504.4" type="curve" smooth="yes"/>
      <point x="510.0" y="508.0"/>
      <point x="506.2" y="510.0"/>
      <point x="500.6" y="510.0" type="curve" smooth="yes"/>
      <point x="352.0" y="510.0"/>
      <point x="193.6" y="510.0"/>
    </contour>
    <contour>
      <point x="259.4" y="683.6" type="curve" smooth="yes"/>
      <point x="247.8" y="695.2"/>
      <point x="230.4" y="700.0"/>
      <point x="208.0" y="700.0" type="curve" smooth="yes"/>
      <point x="195.0" y="700.0" type="line"/>
      <point x="195.0" y="130.2" type="line" smooth="yes"/>
      <point x="195.0" y="84.6"/>
      <point x="215.8" y="51.2"/>
      <point x="246.0" y="21.0" type="curve"/>
      <point x="261.8" y="5.2"/>
      <point x="282.4" y="12.8"/>
      <point x="285.8" y="33.8" type="curve"/>
      <point x="270.6" y="66.0"/>
      <point x="265.0" y="104.4"/>
      <point x="265.0" y="160.6" type="curve" smooth="yes"/>
      <point x="265.0" y="670.6" type="line" smooth="yes"/>
      <point x="265.0" y="676.2"/>
      <point x="263.0" y="680.0"/>
    </contour>
  </outline>
</glyph>
<glyph name="u" format="2">
  <advance width="600.0"/>
  <unicode hex="0075"/>
  <outline>
    <contour>
      <point x="435.0" y="520.0" type="line"/>
      <point x="435.0" y="352.7388090349076"/>
      <point x="435.0" y="184.93333333333334"/>
      <point x="435.0" y="17.4" type="curve" smooth="yes"/>
      <point x="435.0" y="11.8"/>
      <point x="437.0" y="8.0"/>
      <point x="440.6" y="4.4" type="curve" smooth="yes"/>
      <point x="449.8" y="-4.8"/>
      <point x="471.6" y="-10.0"/>
      <point x="494.0" y="-10.0" type="curve" smooth="yes"/>
      <point x="507.0" y="-10.0" type="line"/>
      <point x="507.0" y="100.46666666666667"/>
      <point x="507.0" y="211.53333333333336"/>
      <point x="507.0" y="322.0" type="curve" smooth="yes"/>
      <point x="507.0" y="378.06666666666666"/>
      <point x="507.0" y="434.53333333333336"/>
      <point x="507.0" y="490.6" type="curve" smooth="yes"/>
      <point x="507.0" y="496.2"/>
      <point x="505.0" y="500.0"/>
      <point x="501.4" y="503.6" type="curve" smooth="yes"/>
      <point x="489.8" y="515.2"/>
      <point x="470.4" y="520.0"/>
      <point x="448.0" y="520.0" type="curve" smooth="yes"/>
    </contour>
    <contour>
      <point x="220.2" y="-18.0" type="curve" smooth="yes"/>
      <point x="302.4" y="-18.0"/>
      <point x="386.6" y="35.0"/>
      <point x="439.0" y="104.0" type="curve" smooth="yes"/>
      <point x="457.8" y="127.8"/>
      <point x="464.2" y="150.2"/>
      <point x="462.6" y="183.2" type="curve"/>
      <point x="364.8" y="82.4"/>
      <point x="305.0" y="54.0"/>
      <point x="223.0" y="54.0" type="curve" smooth="yes"/>
      <point x="186.2" y="54.0"/>
      <point x="148.2" y="75.8"/>
      <point x="119.8" y="122.4" type="curve"/>
      <point x="102.0" y="117.6"/>
      <point x="93.0" y="105.0"/>
      <point x="93.0" y="94.0" type="curve" smooth="yes"/>
      <point x="93.0" y="48.2"/>
      <point x="159.2" y="-18.0"/>
    </contour>
    <contour>
      <point x="93.0" y="520.0" type="line"/>
      <point x="93.0" y="360.94964028776974"/>
      <point x="93.0" y="253.0503597122302"/>
      <point x="93.0" y="94.0" type="curve" smooth="yes"/>
      <point x="93.0" y="88.4"/>
      <point x="95.0" y="84.6"/>
      <point x="98.6" y="81.0" type="curve" smooth="yes"/>
      <point x="110.2" y="69.4"/>
      <point x="129.6" y="64.6"/>
      <point x="152.0" y="64.6" type="curve" smooth="yes"/>
      <point x="165.0" y="64.6" type="line"/>
      <point x="165.0" y="166.8"/>
      <point x="165.0" y="219.6"/>
      <point x="165.0" y="322.0" type="curve" smooth="yes"/>
      <point x="165.0" y="378.06666666666666"/>
      <point x="165.0" y="434.53333333333336"/>
      <point x="165.0" y="490.6" type="curve" smooth="yes"/>
      <point x="165.0" y="496.2"/>
      <point x="163.0" y="500.0"/>
      <point x="159.4" y="503.6" type="curve" smooth="yes"/>
      <point x="147.8" y="515.2"/>
      <point x="128.4" y="520.0"/>
      <point x="106.0" y="520.0" type="curve" smooth="yes"/>
    </contour>
  </outline>
</glyph>
<glyph name="v" format="2">
  <advance width="600.0"/>
  <unicode hex="0076"/>
  <outline>
    <contour>
      <point x="473.0" y="520.0" type="curve" smooth="yes"/>
      <point x="460.2" y="520.0" type="line"/>
      <point x="436.00936266901203" y="237.70780342871473"/>
      <point x="397.7692990477676" y="136.09453902718244"/>
      <point x="280.6" y="35.6" type="curve" smooth="yes"/>
      <point x="266.4572820820212" y="23.97844034374169"/>
      <point x="262.8904109589041" y="-10.0"/>
      <point x="297.2" y="-10.0" type="curve"/>
      <point x="330.0" y="-10.0" type="line"/>
      <point x="452.9136869593792" y="87.08947255086247"/>
      <point x="507.8071212374519" y="226.884283395105"/>
      <point x="529.4" y="483.6" type="curve" smooth="yes"/>
      <point x="531.0" y="502.6"/>
      <point x="506.8" y="520.0"/>
    </contour>
    <contour>
      <point x="80.8" y="520.0" type="curve" smooth="yes"/>
      <point x="68.0" y="520.0" type="line"/>
      <point x="90.30870019985753" y="248.08345387748798"/>
      <point x="134.4" y="121.2"/>
      <point x="237.0" y="18.6" type="curve" smooth="yes"/>
      <point x="258.2" y="-2.6"/>
      <point x="277.0" y="-10.0"/>
      <point x="297.2" y="-10.0" type="curve"/>
      <point x="316.5257142857143" y="-10.0"/>
      <point x="329.0" y="4.6"/>
      <point x="329.0" y="26.4" type="curve"/>
      <point x="214.4003837367603" y="124.23298157463638"/>
      <point x="163.36868559175383" y="236.5037420381517"/>
      <point x="142.4" y="494.8" type="curve" smooth="yes"/>
      <point x="141.0" y="510.8"/>
      <point x="114.6" y="520.0"/>
    </contour>
  </outline>
</glyph>
<glyph name="w" format="2">
  <advance width="900.0"/>
  <unicode hex="0077"/>
  <guideline x="384.8" y="342.4" angle="90.0" identifier="24drJOKHsl"/>
  <guideline x="383.6" y="40.8" angle="90.0" identifier="5Z8gD6m6Wp"/>
  <outline>
    <contour>
      <point x="126.6" y="506.4" type="curve" smooth="yes"/>
      <point x="117.4" y="515.6"/>
      <point x="93.2" y="520.0"/>
      <point x="70.8" y="520.0" type="curve" smooth="yes"/>
      <point x="58.0" y="520.0" type="line"/>
      <point x="79.8" y="249.6"/>
      <point x="113.6" y="125.4"/>
      <point x="211.6" y="23.4" type="curve" smooth="yes"/>
      <point x="236.0" y="-1.8"/>
      <point x="256.2" y="-10.0"/>
      <point x="277.2" y="-10.0" type="curve"/>
      <point x="295.8" y="-10.0"/>
      <point x="307.8" y="4.6"/>
      <point x="307.8" y="26.0" type="curve"/>
      <point x="191.8" y="125.6"/>
      <point x="153.0" y="236.2"/>
      <point x="133.2" y="485.2" type="curve" smooth="yes"/>
      <point x="132.2" y="499.0"/>
      <point x="131.0" y="502.0"/>
    </contour>
    <contour>
      <point x="472.6" y="390.8" type="curve" smooth="yes"/>
      <point x="464.7230920505586" y="398.67690794944144"/>
      <point x="450.06666666666666" y="410.0"/>
      <point x="433.4" y="410.0" type="curve" smooth="yes"/>
      <point x="420.6" y="410.0" type="line"/>
      <point x="390.4" y="200.8"/>
      <point x="347.2" y="129.0"/>
      <point x="261.4" y="33.6" type="curve"/>
      <point x="250.3334631406824" y="17.44786011841021"/>
      <point x="253.16" y="-10.0"/>
      <point x="277.2" y="-10.0" type="curve"/>
      <point x="310.0" y="-10.0" type="line"/>
      <point x="395.0" y="77.0"/>
      <point x="446.4" y="182.6"/>
      <point x="477.0" y="375.6" type="curve"/>
      <point x="477.2" y="381.6"/>
      <point x="476.2" y="387.2"/>
    </contour>
    <contour>
      <point x="469.6" y="484.2" type="curve" smooth="yes"/>
      <point x="461.4" y="492.4"/>
      <point x="438.2" y="497.0"/>
      <point x="416.6" y="497.0" type="curve" smooth="yes"/>
      <point x="403.8" y="497.0" type="line"/>
      <point x="423.8" y="223.8"/>
      <point x="475.4" y="83.6"/>
      <point x="540.4" y="18.6" type="curve" smooth="yes"/>
      <point x="563.2" y="-4.2"/>
      <point x="580.2" y="-10.0"/>
      <point x="601.2" y="-10.0" type="curve"/>
      <point x="613.8" y="-10.0"/>
      <point x="621.8" y="5.4"/>
      <point x="621.8" y="26.8" type="curve"/>
      <point x="535.2" y="112.2"/>
      <point x="498.8" y="223.8"/>
      <point x="477.0" y="462.2" type="curve" smooth="yes"/>
      <point x="475.2" y="477.6"/>
      <point x="474.0" y="479.8"/>
    </contour>
    <contour>
      <point x="834.2" y="500.4" type="curve" smooth="yes"/>
      <point x="824.2" y="510.4"/>
      <point x="805.0235294117647" y="520.0"/>
      <point x="783.0" y="520.0" type="curve" smooth="yes"/>
      <point x="770.2" y="520.0" type="line"/>
      <point x="746.0" y="238.4"/>
      <point x="698.4" y="133.2"/>
      <point x="582.2" y="37.2" type="curve"/>
      <point x="572.8" y="22.400000000000002"/>
      <point x="576.4" y="-10.0"/>
      <point x="601.2" y="-10.0" type="curve"/>
      <point x="634.0" y="-10.0" type="line"/>
      <point x="759.4" y="89.0"/>
      <point x="817.6" y="226.8"/>
      <point x="839.4" y="481.2" type="curve" smooth="yes"/>
      <point x="840.4" y="491.2"/>
      <point x="838.6" y="496.0"/>
    </contour>
  </outline>
</glyph>
<glyph name="x" format="2">
  <advance width="600.0"/>
  <unicode hex="0078"/>
  <outline>
    <contour>
      <point x="525.8" y="-10.0" type="curve" smooth="yes"/>
      <point x="546.2" y="-10.0"/>
      <point x="554.0" y="1.6"/>
      <point x="554.0" y="34.2" type="curve"/>
      <point x="554.0" y="62.0" type="line"/>
      <point x="491.8" y="77.2"/>
      <point x="434.6" y="109.4"/>
      <point x="341.0" y="203.0" type="curve" smooth="yes"/>
      <point x="272.8" y="271.2"/>
      <point x="213.4" y="345.8"/>
      <point x="142.6" y="494.6" type="curve" smooth="yes"/>
      <point x="139.4" y="502.0"/>
      <point x="138.0" y="504.4"/>
      <point x="135.2" y="507.2" type="curve" smooth="yes"/>
      <point x="127.0" y="515.4"/>
      <point x="106.6" y="520.0"/>
      <point x="78.8" y="520.0" type="curve" smooth="yes"/>
      <point x="58.0" y="520.0" type="line"/>
      <point x="116.0" y="362.6"/>
      <point x="195.8" y="244.4"/>
      <point x="293.0" y="145.0" type="curve" smooth="yes"/>
      <point x="394.6" y="43.4"/>
      <point x="478.0" y="-10.0"/>
    </contour>
    <contour>
      <point x="538.6" y="501.6" type="curve" smooth="yes"/>
      <point x="526.6" y="513.6"/>
      <point x="503.8" y="520.0"/>
      <point x="485.0" y="520.0" type="curve" smooth="yes"/>
      <point x="472.2" y="520.0" type="line"/>
      <point x="423.8" y="381.8"/>
      <point x="379.6" y="318.4"/>
      <point x="273.4" y="236.0" type="curve"/>
      <point x="264.0" y="214.8"/>
      <point x="282.2" y="199.0"/>
      <point x="316.2" y="199.0" type="curve"/>
      <point x="432.4" y="288.8"/>
      <point x="496.6" y="360.8"/>
      <point x="541.2" y="484.6" type="curve" smooth="yes"/>
      <point x="544.4" y="493.0"/>
      <point x="543.2" y="497.0"/>
    </contour>
    <contour>
      <point x="52.0" y="8.4" type="curve" smooth="yes"/>
      <point x="64.0" y="-3.5999999999999996"/>
      <point x="80.4" y="-10.0"/>
      <point x="100.0" y="-10.0" type="curve" smooth="yes"/>
      <point x="112.8" y="-10.0" type="line"/>
      <point x="148.8" y="73.8"/>
      <point x="185.0" y="119.0"/>
      <point x="295.8" y="206.0" type="curve"/>
      <point x="302.6" y="225.2"/>
      <point x="287.2" y="241.8"/>
      <point x="253.6" y="241.8" type="curve"/>
      <point x="111.0" y="142.4"/>
      <point x="51.6" y="62.6"/>
      <point x="48.0" y="21.0" type="curve" smooth="yes"/>
      <point x="47.0" y="15.4"/>
      <point x="48.2" y="12.2"/>
    </contour>
  </outline>
</glyph>
<glyph name="y" format="2">
  <advance width="600.0"/>
  <unicode hex="0079"/>
  <outline>
    <contour>
      <point x="125.8" y="507.2" type="curve" smooth="yes"/>
      <point x="117.4" y="515.6"/>
      <point x="93.2" y="520.0"/>
      <point x="70.8" y="520.0" type="curve" smooth="yes"/>
      <point x="58.0" y="520.0" type="line"/>
      <point x="70.8" y="362.2" type="line" smooth="yes"/>
      <point x="80.75285059579534" y="240.8540054994048"/>
      <point x="107.8253356442875" y="150.7746643557125"/>
      <point x="184.0" y="74.6" type="curve" smooth="yes"/>
      <point x="246.48696971690202" y="12.113030283097999"/>
      <point x="315.0603773584906" y="2.0"/>
      <point x="361.6" y="2.0" type="curve"/>
      <point x="378.45714285714286" y="2.0"/>
      <point x="402.6" y="33.0"/>
      <point x="401.8" y="61.2" type="curve"/>
      <point x="342.16363636363633" y="64.0"/>
      <point x="283.41487364916304" y="70.98512635083698"/>
      <point x="233.8" y="120.6" type="curve" smooth="yes"/>
      <point x="175.77581600379625" y="178.62418399620375"/>
      <point x="151.34223826918384" y="242.37216203045148"/>
      <point x="142.2" y="369.4" type="curve" smooth="yes"/>
      <point x="133.2" y="490.8" type="line" smooth="yes"/>
      <point x="132.2" y="499.8"/>
      <point x="130.2" y="502.8"/>
    </contour>
    <contour>
      <point x="535.0" y="498.8" type="curve" smooth="yes"/>
      <point x="525.0" y="508.8"/>
      <point x="505.4" y="520.0"/>
      <point x="483.0" y="520.0" type="curve" smooth="yes"/>
      <point x="470.2" y="520.0" type="line"/>
      <point x="457.8" y="372.8" type="line" smooth="yes"/>
      <point x="439.6008247408907" y="161.30796628924236"/>
      <point x="382.8765077646414" y="30.0765077646414"/>
      <point x="248.4" y="-104.4" type="curve" smooth="yes"/>
      <point x="215.2" y="-137.6"/>
      <point x="181.6" y="-171.2"/>
      <point x="131.6" y="-209.8" type="curve"/>
      <point x="131.6" y="-232.6"/>
      <point x="141.0" y="-250.0"/>
      <point x="162.6" y="-250.0" type="curve" smooth="yes"/>
      <point x="190.6" y="-250.0"/>
      <point x="222.8" y="-234.6"/>
      <point x="265.4" y="-192.0" type="curve" smooth="yes"/>
      <point x="433.21678480376704" y="-24.39253260348092"/>
      <point x="510.2171751558745" y="132.91507000938074"/>
      <point x="528.8" y="358.0" type="curve" smooth="yes"/>
      <point x="538.6" y="479.6" type="line" smooth="yes"/>
      <point x="539.6" y="489.6"/>
      <point x="538.6" y="495.2"/>
    </contour>
    <contour>
      <point x="54.0" y="-180.0" type="curve"/>
      <point x="54.0" y="-193.0" type="line" smooth="yes"/>
      <point x="54.0" y="-215.4"/>
      <point x="58.8" y="-232.8"/>
      <point x="70.4" y="-244.4" type="curve" smooth="yes"/>
      <point x="74.0" y="-248.0"/>
      <point x="77.8" y="-250.0"/>
      <point x="83.4" y="-250.0" type="curve"/>
      <point x="127.0" y="-250.0"/>
      <point x="119.8" y="-250.0"/>
      <point x="162.6" y="-250.0" type="curve" smooth="yes"/>
      <point x="195.2" y="-250.0"/>
      <point x="220.0" y="-220.6"/>
      <point x="227.2" y="-180.0" type="curve"/>
      <point x="158.2" y="-180.0"/>
      <point x="119.0" y="-180.0"/>
    </contour>
  </outline>
</glyph>
<glyph name="z" format="2">
  <advance width="600.0"/>
  <unicode hex="007A"/>
  <outline>
    <contour>
      <point x="74.0" y="510.0" type="curve"/>
      <point x="74.0" y="497.0" type="line" smooth="yes"/>
      <point x="74.0" y="473.8"/>
      <point x="78.8" y="457.2"/>
      <point x="90.4" y="445.6" type="curve" smooth="yes"/>
      <point x="94.0" y="442.0"/>
      <point x="97.8" y="440.0"/>
      <point x="103.4" y="440.0" type="curve"/>
      <point x="164.2" y="440.0"/>
      <point x="201.2" y="440.0"/>
      <point x="262.0" y="440.0" type="curve" smooth="yes"/>
      <point x="348.2" y="440.0"/>
      <point x="439.8" y="440.0"/>
      <point x="526.0" y="440.0" type="curve"/>
      <point x="526.0" y="471.6"/>
      <point x="518.8" y="491.2"/>
      <point x="505.6" y="504.4" type="curve" smooth="yes"/>
      <point x="502.0" y="508.0"/>
      <point x="498.2" y="510.0"/>
      <point x="492.6" y="510.0" type="curve" smooth="yes"/>
      <point x="346.6" y="510.0"/>
      <point x="220.0" y="510.0"/>
    </contour>
    <contour>
      <point x="522.0" y="453.0" type="curve" smooth="yes"/>
      <point x="506.6" y="468.4"/>
      <point x="499.6" y="477.0"/>
      <point x="474.2" y="477.0" type="curve"/>
      <point x="390.4" y="320.6"/>
      <point x="211.6" y="161.4"/>
      <point x="74.0" y="70.0" type="curve"/>
      <point x="74.0" y="48.4"/>
      <point x="89.8" y="37.0"/>
      <point x="105.6" y="37.0" type="curve" smooth="yes"/>
      <point x="122.6" y="37.0"/>
      <point x="133.0" y="41.0"/>
      <point x="148.4" y="49.4" type="curve" smooth="yes"/>
      <point x="342.0" y="172.8"/>
      <point x="526.0" y="392.6"/>
      <point x="526.0" y="440.0" type="curve" smooth="yes"/>
      <point x="526.0" y="446.0"/>
      <point x="525.0" y="450.0"/>
    </contour>
    <contour>
      <point x="526.0" y="0.0" type="curve"/>
      <point x="526.0" y="13.0" type="line" smooth="yes"/>
      <point x="526.0" y="31.6"/>
      <point x="518.8" y="51.2"/>
      <point x="505.6" y="64.4" type="curve" smooth="yes"/>
      <point x="502.0" y="68.0"/>
      <point x="498.2" y="70.0"/>
      <point x="492.6" y="70.0" type="curve" smooth="yes"/>
      <point x="346.6" y="70.0"/>
      <point x="220.0" y="70.0"/>
      <point x="74.0" y="70.0" type="curve"/>
      <point x="74.0" y="57.0" type="line" smooth="yes"/>
      <point x="74.0" y="33.8"/>
      <point x="78.8" y="17.2"/>
      <point x="90.4" y="5.6" type="curve" smooth="yes"/>
      <point x="94.0" y="2.0"/>
      <point x="97.8" y="0.0"/>
      <point x="103.4" y="0.0" type="curve"/>
      <point x="164.2" y="0.0"/>
      <point x="201.2" y="0.0"/>
      <point x="262.0" y="0.0" type="curve" smooth="yes"/>
      <point x="348.2" y="0.0"/>
      <point x="439.8" y="0.0"/>
    </contour>
  </outline>
</glyph>
<glyph name="f.ss01" format="2">
  <advance width="600.0"/>
  <outline>
    <contour>
      <point x="246.8" y="633.6" type="curve"/>
      <point x="283.0" y="674.0"/>
      <point x="322.8" y="688.0"/>
      <point x="400.0" y="688.0" type="curve" smooth="yes"/>
      <point x="457.2" y="688.0"/>
      <point x="507.0" y="673.4"/>
      <point x="542.0" y="655.0" type="curve"/>
      <point x="555.0" y="655.0" type="line"/>
      <point x="555.0" y="672.8" type="line"/>
      <point x="555.0" y="698.2"/>
      <point x="550.0" y="712.6"/>
      <point x="543.0" y="720.2" type="curve" smooth="yes"/>
      <point x="530.8" y="732.8"/>
      <point x="475.8" y="755.0"/>
      <point x="418.0" y="755.0" type="curve"/>
      <point x="392.0" y="755.0" type="line"/>
      <point x="327.2" y="755.0"/>
      <point x="280.8" y="741.0"/>
      <point x="237.2" y="697.4" type="curve" smooth="yes"/>
      <point x="219.8" y="680.0"/>
      <point x="226.0" y="654.2"/>
    </contour>
    <contour>
      <point x="260.0" y="16.2" type="line"/>
      <point x="260.0" y="197.6"/>
      <point x="260.0" y="365.2"/>
      <point x="260.0" y="510.0" type="curve" smooth="yes"/>
      <point x="260.0" y="599.4"/>
      <point x="253.6" y="642.0"/>
      <point x="293.6" y="701.6" type="curve"/>
      <point x="273.8" y="717.4"/>
      <point x="250.4" y="710.6"/>
      <point x="237.2" y="697.4" type="curve" smooth="yes"/>
      <point x="203.8" y="664.0"/>
      <point x="190.0" y="627.4"/>
      <point x="190.0" y="552.6" type="curve"/>
      <point x="190.0" y="417.2"/>
      <point x="190.0" y="231.4"/>
      <point x="190.0" y="45.6" type="curve"/>
      <point x="190.0" y="40.0"/>
      <point x="192.0" y="36.2"/>
      <point x="195.6" y="32.6" type="curve" smooth="yes"/>
      <point x="207.2" y="21.0"/>
      <point x="224.6" y="16.2"/>
      <point x="247.0" y="16.2" type="curve" smooth="yes"/>
    </contour>
    <contour>
      <point x="45.0" y="510.0" type="curve"/>
      <point x="45.0" y="497.0" type="line" smooth="yes"/>
      <point x="45.0" y="474.0"/>
      <point x="50.0" y="457.0"/>
      <point x="61.4" y="445.6" type="curve" smooth="yes"/>
      <point x="65.2" y="441.8"/>
      <point x="69.0" y="440.0"/>
      <point x="74.4" y="440.0" type="curve"/>
      <point x="134.2" y="440.0"/>
      <point x="197.2" y="440.0"/>
      <point x="257.0" y="440.0" type="curve"/>
      <point x="332.6" y="440.0"/>
      <point x="432.0" y="440.0"/>
      <point x="505.0" y="440.0" type="curve"/>
      <point x="505.0" y="453.0" type="line" smooth="yes"/>
      <point x="505.0" y="476.2"/>
      <point x="500.0" y="493.0"/>
      <point x="488.6" y="504.4" type="curve" smooth="yes"/>
      <point x="484.8" y="508.2"/>
      <point x="481.0" y="510.0"/>
      <point x="475.6" y="510.0" type="curve" smooth="yes"/>
      <point x="342.8" y="510.0"/>
      <point x="178.0" y="510.0"/>
    </contour>
    <contour>
      <point x="50.0" y="70.0" type="curve"/>
      <point x="50.0" y="57.0" type="line" smooth="yes"/>
      <point x="50.0" y="34.0"/>
      <point x="55.0" y="17.0"/>
      <point x="66.4" y="5.6" type="curve" smooth="yes"/>
      <point x="70.2" y="1.8"/>
      <point x="74.0" y="0.0"/>
      <point x="79.4" y="0.0" type="curve"/>
      <point x="140.2" y="0.0"/>
      <point x="201.2" y="0.0"/>
      <point x="262.0" y="0.0" type="curve"/>
      <point x="349.6" y="0.0"/>
      <point x="412.4" y="0.0"/>
      <point x="500.0" y="0.0" type="curve"/>
      <point x="500.0" y="13.0" type="line" smooth="yes"/>
      <point x="500.0" y="31.8"/>
      <point x="491.8" y="52.2"/>
      <point x="479.6" y="64.4" type="curve" smooth="yes"/>
      <point x="475.8" y="68.2"/>
      <point x="472.0" y="70.0"/>
      <point x="466.6" y="70.0" type="curve" smooth="yes"/>
      <point x="319.2" y="70.0"/>
      <point x="197.4" y="70.0"/>
    </contour>
  </outline>
</glyph>
<glyph name="g.ver02" format="2">
  <advance width="600.0"/>
  <outline>
    <contour>
      <point x="311.0" y="465.0" type="curve" smooth="yes"/>
      <point x="373.4" y="465.0"/>
      <point x="433.6" y="449.8"/>
      <point x="464.0" y="420.0" type="curve"/>
      <point x="486.8" y="446.6"/>
      <point x="486.8" y="466.2"/>
      <point x="467.6" y="485.4" type="curve" smooth="yes"/>
      <point x="433.6" y="519.4"/>
      <point x="357.2" y="530.0"/>
      <point x="303.0" y="530.0" type="curve" smooth="yes"/>
      <point x="174.8" y="530.0"/>
      <point x="76.0" y="463.2"/>
      <point x="76.0" y="356.0" type="curve" smooth="yes"/>
      <point x="76.0" y="305.0" type="line" smooth="yes"/>
      <point x="76.0" y="252.0"/>
      <point x="88.6" y="226.2"/>
      <point x="132.4" y="182.4" type="curve" smooth="yes"/>
      <point x="152.6" y="162.2"/>
      <point x="182.4" y="161.4"/>
      <point x="195.2" y="176.2" type="curve"/>
      <point x="153.6" y="223.0"/>
      <point x="145.2" y="236.2"/>
      <point x="145.2" y="276.6" type="curve" smooth="yes"/>
      <point x="145.2" y="324.0" type="line" smooth="yes"/>
      <point x="145.2" y="423.2"/>
      <point x="206.8" y="465.0"/>
    </contour>
    <contour>
      <point x="297.0" y="196.0" type="curve" smooth="yes"/>
      <point x="240.4" y="196.0"/>
      <point x="178.2" y="202.6"/>
      <point x="126.0" y="234.4" type="curve"/>
      <point x="115.6" y="216.6"/>
      <point x="116.6" y="199.2"/>
      <point x="132.4" y="182.4" type="curve" smooth="yes"/>
      <point x="175.6" y="136.8"/>
      <point x="226.8" y="130.0"/>
      <point x="309.0" y="130.0" type="curve" smooth="yes"/>
      <point x="443.0" y="130.0"/>
      <point x="524.0" y="210.2"/>
      <point x="524.0" y="318.0" type="curve" smooth="yes"/>
      <point x="524.0" y="369.0" type="line" smooth="yes"/>
      <point x="524.0" y="409.2"/>
      <point x="510.8" y="442.2"/>
      <point x="467.6" y="485.4" type="curve" smooth="yes"/>
      <point x="453.6" y="499.4"/>
      <point x="414.2" y="499.4"/>
      <point x="401.6" y="486.8" type="curve"/>
      <point x="448.4" y="447.2"/>
      <point x="456.0" y="426.6"/>
      <point x="456.0" y="375.0" type="curve" smooth="yes"/>
      <point x="456.0" y="317.0" type="line" smooth="yes"/>
      <point x="456.0" y="246.2"/>
      <point x="393.6" y="196.0"/>
    </contour>
    <contour>
      <point x="135.0" y="64.6" type="curve" smooth="yes"/>
      <point x="135.0" y="51.6" type="line" smooth="yes"/>
      <point x="135.0" y="-2.8000000000000007"/>
      <point x="171.6" y="-32.0"/>
      <point x="239.0" y="-32.0" type="curve" smooth="yes"/>
      <point x="439.0" y="-32.0" type="line" smooth="yes"/>
      <point x="466.6" y="-32.0"/>
      <point x="485.4" y="-52.6"/>
      <point x="485.4" y="-79.4" type="curve" smooth="yes"/>
      <point x="485.4" y="-124.8" type="line" smooth="yes"/>
      <point x="485.4" y="-163.6"/>
      <point x="479.8" y="-174.0"/>
      <point x="459.8" y="-200.0" type="curve"/>
      <point x="470.6" y="-206.4"/>
      <point x="499.6" y="-205.0"/>
      <point x="508.8" y="-195.8" type="curve" smooth="yes"/>
      <point x="541.2" y="-163.4"/>
      <point x="555.0" y="-139.8"/>
      <point x="555.0" y="-100.0" type="curve" smooth="yes"/>
      <point x="555.0" y="-56.0" type="line" smooth="yes"/>
      <point x="555.0" y="-5.0"/>
      <point x="509.6" y="35.0"/>
      <point x="451.0" y="35.0" type="curve" smooth="yes"/>
      <point x="236.4" y="35.0" type="line" smooth="yes"/>
      <point x="212.2" y="35.0"/>
      <point x="205.0" y="42.2"/>
      <point x="205.0" y="66.4" type="curve" smooth="yes"/>
      <point x="205.0" y="88.4" type="line" smooth="yes"/>
      <point x="205.0" y="110.4"/>
      <point x="219.4" y="139.0"/>
      <point x="233.0" y="152.6" type="curve"/>
      <point x="233.0" y="159.4"/>
      <point x="229.8" y="162.4"/>
      <point x="221.0" y="163.6" type="curve" smooth="yes"/>
      <point x="193.4" y="163.6"/>
      <point x="135.0" y="106.2"/>
    </contour>
    <contour>
      <point x="521.0" y="-139.6" type="curve"/>
      <point x="453.0" y="-186.4"/>
      <point x="409.6" y="-190.0"/>
      <point x="328.6" y="-190.0" type="curve"/>
      <point x="234.0" y="-190.0" type="line"/>
      <point x="171.0" y="-190.0"/>
      <point x="137.0" y="-165.6"/>
      <point x="137.0" y="-117.0" type="curve" smooth="yes"/>
      <point x="137.0" y="-96.0" type="line" smooth="yes"/>
      <point x="137.0" y="-68.0"/>
      <point x="156.2" y="-27.6"/>
      <point x="197.2" y="-13.8" type="curve"/>
      <point x="197.2" y="-6.4"/>
      <point x="193.4" y="1.1999999999999993"/>
      <point x="184.8" y="1.1999999999999993" type="curve"/>
      <point x="120.4" y="1.1999999999999993"/>
      <point x="70.0" y="-54.8"/>
      <point x="70.0" y="-117.8" type="curve" smooth="yes"/>
      <point x="70.0" y="-133.0" type="line" smooth="yes"/>
      <point x="70.0" y="-197.0"/>
      <point x="129.2" y="-250.0"/>
      <point x="213.0" y="-250.0" type="curve"/>
      <point x="288.0" y="-250.0" type="line"/>
      <point x="391.6" y="-250.0"/>
      <point x="468.6" y="-236.0"/>
      <point x="508.8" y="-195.8" type="curve"/>
      <point x="525.2" y="-179.4"/>
      <point x="531.6" y="-150.2"/>
    </contour>
    <contour>
      <point x="447.6" y="470.6" type="curve" smooth="yes"/>
      <point x="514.8" y="534.8" type="line" smooth="yes"/>
      <point x="541.6" y="560.2"/>
      <point x="555.0" y="571.4"/>
      <point x="555.0" y="604.2" type="curve" smooth="yes"/>
      <point x="555.0" y="605.8"/>
      <point x="555.0" y="613.4"/>
      <point x="555.0" y="615.6" type="curve" smooth="yes"/>
      <point x="555.0" y="621.2"/>
      <point x="553.0" y="625.0"/>
      <point x="549.4" y="628.6" type="curve" smooth="yes"/>
      <point x="537.8" y="640.2"/>
      <point x="519.2" y="645.0"/>
      <point x="496.0" y="645.0" type="curve" smooth="yes"/>
      <point x="485.0" y="645.0" type="line"/>
      <point x="485.0" y="642.0"/>
      <point x="485.0" y="631.2"/>
      <point x="485.0" y="628.2" type="curve" smooth="yes"/>
      <point x="485.0" y="608.4"/>
      <point x="479.0" y="595.6"/>
      <point x="470.4" y="578.6" type="curve" smooth="yes"/>
      <point x="418.6" y="477.0" type="line"/>
      <point x="424.6" y="468.4"/>
      <point x="439.6" y="463.4"/>
    </contour>
  </outline>
</glyph>
<glyph name="r.ss01" format="2">
  <advance width="600.0"/>
  <outline>
    <contour>
      <point x="50.0" y="510.0" type="curve"/>
      <point x="50.0" y="497.0" type="line" smooth="yes"/>
      <point x="50.0" y="474.6"/>
      <point x="54.8" y="457.2"/>
      <point x="66.4" y="445.6" type="curve" smooth="yes"/>
      <point x="70.0" y="442.0"/>
      <point x="73.8" y="440.0"/>
      <point x="79.4" y="440.0" type="curve"/>
      <point x="116.2" y="440.0"/>
      <point x="152.4" y="440.0"/>
      <point x="189.2" y="440.0" type="curve"/>
      <point x="189.2" y="453.0" type="line" smooth="yes"/>
      <point x="189.2" y="478.8"/>
      <point x="182.8" y="510.0"/>
      <point x="157.4" y="510.0" type="curve" smooth="yes"/>
      <point x="120.6" y="510.0"/>
      <point x="86.8" y="510.0"/>
    </contour>
    <contour>
      <point x="220.0" y="21.2" type="line"/>
      <point x="220.0" y="138.6"/>
      <point x="220.0" y="255.2"/>
      <point x="220.0" y="372.6" type="curve"/>
      <point x="220.0" y="456.4"/>
      <point x="198.8" y="510.0"/>
      <point x="163.0" y="510.0" type="curve" smooth="yes"/>
      <point x="150.0" y="510.0" type="line"/>
      <point x="150.0" y="412.0"/>
      <point x="150.0" y="281.6"/>
      <point x="150.0" y="195.6" type="curve" smooth="yes"/>
      <point x="150.0" y="146.8"/>
      <point x="150.0" y="97.8"/>
      <point x="150.0" y="50.6" type="curve"/>
      <point x="150.0" y="45.0"/>
      <point x="152.0" y="41.2"/>
      <point x="155.6" y="37.6" type="curve" smooth="yes"/>
      <point x="167.2" y="26.0"/>
      <point x="184.6" y="21.2"/>
      <point x="207.0" y="21.2" type="curve" smooth="yes"/>
    </contour>
    <contour>
      <point x="50.0" y="70.0" type="curve"/>
      <point x="50.0" y="57.0" type="line" smooth="yes"/>
      <point x="50.0" y="34.6"/>
      <point x="54.8" y="17.2"/>
      <point x="66.4" y="5.6" type="curve" smooth="yes"/>
      <point x="70.0" y="2.0"/>
      <point x="73.8" y="0.0"/>
      <point x="79.4" y="0.0" type="curve"/>
      <point x="140.2" y="0.0"/>
      <point x="201.2" y="0.0"/>
      <point x="262.0" y="0.0" type="curve"/>
      <point x="344.8" y="0.0"/>
      <point x="327.2" y="0.0"/>
      <point x="410.0" y="0.0" type="curve"/>
      <point x="410.0" y="13.0" type="line" smooth="yes"/>
      <point x="410.0" y="35.4"/>
      <point x="405.2" y="52.8"/>
      <point x="393.6" y="64.4" type="curve" smooth="yes"/>
      <point x="390.0" y="68.0"/>
      <point x="386.2" y="70.0"/>
      <point x="380.6" y="70.0" type="curve"/>
      <point x="236.8" y="70.0"/>
      <point x="193.8" y="70.0"/>
    </contour>
    <contour>
      <point x="426.8" y="530.0" type="curve" smooth="yes"/>
      <point x="364.8" y="530.0"/>
      <point x="269.6" y="475.0"/>
      <point x="215.0" y="398.6" type="curve" smooth="yes"/>
      <point x="197.8" y="373.2"/>
      <point x="191.6" y="349.2"/>
      <point x="194.0" y="319.4" type="curve"/>
      <point x="294.4" y="432.4"/>
      <point x="356.4" y="458.6"/>
      <point x="415.0" y="458.6" type="curve" smooth="yes"/>
      <point x="450.0" y="458.6"/>
      <point x="479.2" y="435.8"/>
      <point x="508.6" y="392.2" type="curve"/>
      <point x="523.2" y="398.4"/>
      <point x="530.0" y="409.6"/>
      <point x="530.0" y="420.6" type="curve" smooth="yes"/>
      <point x="530.0" y="462.8"/>
      <point x="478.2" y="530.0"/>
    </contour>
    <contour>
      <point x="530.0" y="295.0" type="line"/>
      <point x="530.0" y="340.6"/>
      <point x="530.0" y="375.0"/>
      <point x="530.0" y="420.6" type="curve" smooth="yes"/>
      <point x="530.0" y="442.0"/>
      <point x="502.4" y="468.0"/>
      <point x="473.0" y="468.0" type="curve" smooth="yes"/>
      <point x="460.0" y="468.0" type="line"/>
      <point x="460.0" y="442.4"/>
      <point x="460.0" y="420.4"/>
      <point x="460.0" y="399.6" type="curve" smooth="yes"/>
      <point x="460.0" y="377.4"/>
      <point x="460.0" y="350.6"/>
      <point x="460.0" y="324.4" type="curve" smooth="yes"/>
      <point x="460.0" y="318.8"/>
      <point x="462.0" y="315.0"/>
      <point x="465.6" y="311.4" type="curve" smooth="yes"/>
      <point x="477.2" y="299.8"/>
      <point x="494.6" y="295.0"/>
      <point x="517.0" y="295.0" type="curve" smooth="yes"/>
    </contour>
  </outline>
</glyph>
<glyph name="r.ss02" format="2">
  <advance width="600.0"/>
  <outline>
    <contour>
      <point x="50.0" y="510.0" type="curve"/>
      <point x="50.0" y="497.0" type="line" smooth="yes"/>
      <point x="50.0" y="474.6"/>
      <point x="54.8" y="457.2"/>
      <point x="66.4" y="445.6" type="curve" smooth="yes"/>
      <point x="70.0" y="442.0"/>
      <point x="73.8" y="440.0"/>
      <point x="79.4" y="440.0" type="curve"/>
      <point x="123.4" y="440.0"/>
      <point x="167.2" y="440.0"/>
      <point x="211.2" y="440.0" type="curve"/>
      <point x="211.2" y="453.0" type="line" smooth="yes"/>
      <point x="211.2" y="478.8"/>
      <point x="204.8" y="510.0"/>
      <point x="179.4" y="510.0" type="curve" smooth="yes"/>
      <point x="135.4" y="510.0"/>
      <point x="94.0" y="510.0"/>
    </contour>
    <contour>
      <point x="242.0" y="-10.0" type="line"/>
      <point x="242.0" y="117.8"/>
      <point x="242.0" y="244.8"/>
      <point x="242.0" y="372.6" type="curve"/>
      <point x="242.0" y="456.4"/>
      <point x="220.8" y="510.0"/>
      <point x="185.0" y="510.0" type="curve" smooth="yes"/>
      <point x="170.0" y="510.0" type="line"/>
      <point x="170.0" y="412.0"/>
      <point x="170.0" y="281.6"/>
      <point x="170.0" y="195.6" type="curve" smooth="yes"/>
      <point x="170.0" y="136.4"/>
      <point x="170.0" y="77.0"/>
      <point x="170.0" y="19.4" type="curve"/>
      <point x="170.0" y="13.8"/>
      <point x="172.0" y="10.0"/>
      <point x="175.6" y="6.4" type="curve" smooth="yes"/>
      <point x="187.2" y="-5.2"/>
      <point x="206.6" y="-10.0"/>
      <point x="229.0" y="-10.0" type="curve" smooth="yes"/>
    </contour>
    <contour>
      <point x="418.8" y="530.0" type="curve" smooth="yes"/>
      <point x="366.2" y="530.0"/>
      <point x="284.8" y="478.2"/>
      <point x="237.0" y="398.6" type="curve" smooth="yes"/>
      <point x="220.6" y="370.8"/>
      <point x="213.6" y="345.2"/>
      <point x="216.0" y="313.8" type="curve"/>
      <point x="299.4" y="431.4"/>
      <point x="362.0" y="458.6"/>
      <point x="415.0" y="458.6" type="curve" smooth="yes"/>
      <point x="450.0" y="458.6"/>
      <point x="479.2" y="435.8"/>
      <point x="508.6" y="392.2" type="curve"/>
      <point x="523.2" y="398.4"/>
      <point x="530.0" y="409.6"/>
      <point x="530.0" y="420.6" type="curve" smooth="yes"/>
      <point x="530.0" y="462.8"/>
      <point x="474.2" y="530.0"/>
    </contour>
    <contour>
      <point x="530.0" y="250.0" type="line"/>
      <point x="530.0" y="312.4"/>
      <point x="530.0" y="358.4"/>
      <point x="530.0" y="420.6" type="curve" smooth="yes"/>
      <point x="530.0" y="442.0"/>
      <point x="502.4" y="468.0"/>
      <point x="473.0" y="468.0" type="curve" smooth="yes"/>
      <point x="460.0" y="468.0" type="line"/>
      <point x="460.0" y="442.4"/>
      <point x="460.0" y="420.4"/>
      <point x="460.0" y="399.6" type="curve" smooth="yes"/>
      <point x="460.0" y="363.4"/>
      <point x="460.0" y="322.8"/>
      <point x="460.0" y="279.4" type="curve" smooth="yes"/>
      <point x="460.0" y="273.8"/>
      <point x="462.0" y="270.0"/>
      <point x="465.6" y="266.4" type="curve" smooth="yes"/>
      <point x="477.2" y="254.8"/>
      <point x="494.6" y="250.0"/>
      <point x="517.0" y="250.0" type="curve" smooth="yes"/>
    </contour>
  </outline>
</glyph>
<glyph name="s.alt1" format="2">
  <advance width="600.0"/>
  <outline>
    <contour>
      <point x="379.2" y="245.8" type="curve" smooth="yes"/>
      <point x="286.8" y="263.4" type="line" smooth="yes"/>
      <point x="180.2" y="283.8"/>
      <point x="165.0" y="304.0"/>
      <point x="165.0" y="329.0" type="curve" smooth="yes"/>
      <point x="165.0" y="339.8"/>
      <point x="167.8" y="355.2"/>
      <point x="175.4" y="369.8" type="curve"/>
      <point x="124.2" y="369.8"/>
      <point x="95.0" y="347.8"/>
      <point x="95.0" y="316.6" type="curve"/>
      <point x="95.0" y="266.6"/>
      <point x="142.4" y="235.4"/>
      <point x="260.4" y="211.6" type="curve" smooth="yes"/>
      <point x="353.2" y="193.0" type="line" smooth="yes"/>
      <point x="443.4" y="175.0"/>
      <point x="479.0" y="152.6"/>
      <point x="495.2" y="106.8" type="curve"/>
      <point x="518.6" y="106.8"/>
      <point x="529.2" y="120.0"/>
      <point x="529.2" y="145.4" type="curve"/>
      <point x="529.2" y="190.0"/>
      <point x="482.6" y="226.2"/>
    </contour>
    <contour>
      <point x="300.0" y="-20.0" type="curve" smooth="yes"/>
      <point x="437.6" y="-20.0"/>
      <point x="529.2" y="33.4"/>
      <point x="529.2" y="113.6" type="curve" smooth="yes"/>
      <point x="529.2" y="145.4" type="line"/>
      <point x="529.2" y="164.0"/>
      <point x="506.2" y="169.2"/>
      <point x="490.4" y="158.8" type="curve"/>
      <point x="479.6" y="88.0"/>
      <point x="422.8" y="50.0"/>
      <point x="300.0" y="50.0" type="curve" smooth="yes"/>
      <point x="193.8" y="50.0"/>
      <point x="145.4" y="66.0"/>
      <point x="90.4" y="115.0" type="curve"/>
      <point x="71.6" y="115.0" type="line"/>
      <point x="71.6" y="101.2"/>
      <point x="71.6" y="85.6"/>
      <point x="71.6" y="70.2" type="curve"/>
      <point x="71.2" y="18.0"/>
      <point x="168.2" y="-20.0"/>
    </contour>
    <contour>
      <point x="395.0" y="530.0" type="curve" smooth="yes"/>
      <point x="272.4" y="530.0"/>
      <point x="95.0" y="420.6"/>
      <point x="95.0" y="346.6" type="curve" smooth="yes"/>
      <point x="95.0" y="316.6" type="line" smooth="yes"/>
      <point x="95.0" y="286.4"/>
      <point x="147.0" y="279.6"/>
      <point x="176.2" y="279.6" type="curve"/>
      <point x="167.4" y="297.8"/>
      <point x="165.0" y="315.2"/>
      <point x="165.0" y="329.0" type="curve" smooth="yes"/>
      <point x="165.0" y="371.6"/>
      <point x="310.8" y="460.0"/>
      <point x="394.2" y="460.0" type="curve" smooth="yes"/>
      <point x="413.2" y="460.0"/>
      <point x="435.0" y="454.0"/>
      <point x="463.0" y="440.0" type="curve"/>
      <point x="482.6" y="459.6"/>
      <point x="481.0" y="481.2"/>
      <point x="467.4" y="494.8" type="curve"/>
      <point x="446.8" y="517.0"/>
      <point x="419.8" y="530.0"/>
    </contour>
    <contour>
      <point x="505.0" y="420.0" type="curve"/>
      <point x="505.0" y="444.8"/>
      <point x="490.8" y="471.4"/>
      <point x="467.4" y="494.8" type="curve"/>
      <point x="455.2" y="507.8"/>
      <point x="430.0" y="499.4"/>
      <point x="413.0" y="487.2" type="curve"/>
      <point x="429.8" y="458.0"/>
      <point x="435.0" y="439.8"/>
      <point x="435.0" y="426.4" type="curve"/>
      <point x="435.0" y="415.8"/>
      <point x="435.0" y="404.6"/>
      <point x="435.0" y="394.0" type="curve"/>
      <point x="435.0" y="366.0"/>
      <point x="453.0" y="350.0"/>
      <point x="485.4" y="350.0" type="curve" smooth="yes"/>
      <point x="505.0" y="350.0" type="line"/>
      <point x="505.0" y="373.4"/>
      <point x="505.0" y="397.2"/>
    </contour>
  </outline>
</glyph>
